/* XPM */
static char *result[] = {
/* columns rows colors chars-per-pixel */
"64 64 9 1 ",
"  c black",
". c #663931",
"X c #3F3F74",
"o c #8F563B",
"O c #DF7126",
"+ c #D9A066",
"@ c #306082",
"# c #EEC39A",
"$ c None",
/* pixels */
"$$$$$$$$$$$$$$$$$$$$$$$$$$$$$$$$$$$$$$$$$$$$$$$$$$$$$$$$$$$$$$$$",
"$$$$$$$$$$$$$$$$$$$$$$$$$$$$$$$$$$$$$$$$$$$$$$$$$$$$$$$$$$$$$$$$",
"$$$$$$$$$$$$$$$$$$$$$$$$$$$$$$$$$$$$$$$$$$$$$$$$$$$$$$$$$$$$$$$$",
"$$$$$$$$$$$$$$$$$$$$$$$$$$$$$$$$$$$$$$$$$$$$$$$$$$$$$$$$$$$$$$$$",
"$$$$$$$$$$$$$$$$$$$$$$$$$$$$$$$$$$$$$$$$$$$$$$$$$$$$$$$$$$$$$$$$",
"$$$$$$$$$$$$$$$$$$$$$$$$$$$$$$$$$$$$$$$$$$$$$$$$$$$$$$$$$$$$$$$$",
"$$$$$$$$$$$$$$$$                          $$$$$$$$$$$$$$$$$$$$$$",
"$$$$$$$$$$$$$$$$                          $$$$$$$$$$$$$$$$$$$$$$",
"$$$$$$$$$$$$    XXXX@@@@@@@@@@@@@@@@@@@@@@    $$$$$$$$$$$$$$$$$$",
"$$$$$$$$$$$$    XXXX@@@@@@@@@@@@@@@@@@@@@@    $$$$$$$$$$$$$$$$$$",
"$$$$$$$$      @@@@@@@@@@@@@@@@@@@@@@@@@@@@@@XX    $$$$$$$$$$$$$$",
"$$$$$$$$      @@@@@@@@@@@@@@@@@@@@@@@@@@@@@@XX    $$$$$$$$$$$$$$",
"$$$$$$  ++++  @@@@@@    @@XXXXXXXXXX@@    @@@@@@XX  $$$$$$$$$$$$",
"$$$$$$  ++++  @@@@@@    @@XXXXXXXXXX@@    @@@@@@XX  $$$$$$$$$$$$",
"$$$$  ++####  @@@@@@  OO              OO  @@@@@@@@@@  $$$$$$$$$$",
"$$$$  ++####  @@@@@@  OO              OO  @@@@@@@@@@  $$$$$$$$$$",
"$$  ++######  @@@@@@    ..............    XX@@@@@@@@@@  $$$$$$$$",
"$$  ++######  @@@@@@    ..............    XX@@@@@@@@@@  $$$$$$$$",
"$$  ++####++  XXXX  ......oooo..oooo......  XX@@@@@@@@XX  $$$$$$",
"$$  ++####++  XXXX  ......oooo..oooo......  XX@@@@@@@@XX  $$$$$$",
"  ++++####++++    ....ooooOO..OO..OOoooo....  XXXX@@@@@@    $$$$",
"  ++++####++++    ....ooooOO..OO..OOoooo....  XXXX@@@@@@    $$$$",
"  ++####++++++  ..ooooOOOOOO..oo..OOOOOOoooo..  XXXXXX  ##  $$$$",
"  ++####++++++  ..ooooOOOOOO..oo..OOOOOOoooo..  XXXXXX  ##  $$$$",
"  ++####++++  ....oo....OOOOOOOOOOOOOO....oo....        ##++  $$",
"  ++####++++  ....oo....OOOOOOOOOOOOOO....oo....        ##++  $$",
"  ++####      ..oo..OOooOOOOOOOOOOOOOOooOO..oo..  OO  ######  $$",
"  ++####      ..oo..OOooOOOOOOOOOOOOOOooOO..oo..  OO  ######  $$",
"  ++####  OO....ooOO..OOOOOOooooOOOOOOOO..OOoo....  ++######  $$",
"  ++####  OO....ooOO..OOOOOOooooOOOOOOOO..OOoo....  ++######  $$",
"  ++####++  ..ooOOOOOOOOOOooOOOOooOOOOOOOOOOOOoo..  ++######++  ",
"  ++####++  ..ooOOOOOOOOOOooOOOOooOOOOOOOOOOOOoo..  ++######++  ",
"  ++####++  ..ooOOOOOOOOOO..OOOO..OOOOOOOOOOOOoo..  ++######++  ",
"  ++####++  ..ooOOOOOOOOOO..OOOO..OOOOOOOOOOOOoo..  ++######++  ",
"$$  ####++  ..ooOOOOOOOOOOOO....OOOOOOOOOOOOOOoo..  ++++####++  ",
"$$  ####++  ..ooOOOOOOOOOOOO....OOOOOOOOOOOOOOoo..  ++++####++  ",
"$$  ####++  ..ooOOOO..OOOOOOOOOOOOOOOOOO..OOOOoo..  ++++####++  ",
"$$  ####++  ..ooOOOO..OOOOOOOOOOOOOOOOOO..OOOOoo..  ++++####++  ",
"$$  ++##++  ..ooOO..OOooOOOOOOOOOOOOOOooOO..OOoo..  ++++####++  ",
"$$  ++##++  ..ooOO..OOooOOOOOOOOOOOOOOooOO..OOoo..  ++++####++  ",
"$$  ++##++  ....ooOO....OOOOOOOOOOOOOO....OOoo....  ++++##++  $$",
"$$  ++##++  ....ooOO....OOOOOOOOOOOOOO....OOoo....  ++++##++  $$",
"$$$$  ##  OO  ..ooOOOOOOOOOO..oo..OOOOOOOOOOoo..  OO  ####++  $$",
"$$$$  ##  OO  ..ooOOOOOOOOOO..oo..OOOOOOOOOOoo..  OO  ####++  $$",
"$$$$  ##        ..oo....OOOO..OO..OOOO....oo....      ##++++  $$",
"$$$$  ##        ..oo....OOOO..OO..OOOO....oo....      ##++++  $$",
"$$$$  ######++++..oooo....OOOO..OOOO....oooo..    ++####++  $$$$",
"$$$$  ######++++..oooo....OOOO..OOOO....oooo..    ++####++  $$$$",
"$$$$  ++######++    oo......oooooo......oo..    ++######++  $$$$",
"$$$$  ++######++    oo......oooooo......oo..    ++######++  $$$$",
"$$$$$$    ++++++    ......oooooooooo......  ++########++    $$$$",
"$$$$$$    ++++++    ......oooooooooo......  ++########++    $$$$",
"$$$$$$$$$$      $$$$    ....oooooo....        ++######++  $$$$$$",
"$$$$$$$$$$      $$$$    ....oooooo....        ++######++  $$$$$$",
"$$$$$$$$$$$$$$$$$$$$$$$$  ooOOOOOOOO  $$$$$$    ++++++  $$$$$$$$",
"$$$$$$$$$$$$$$$$$$$$$$$$  ooOOOOOOOO  $$$$$$    ++++++  $$$$$$$$",
"$$$$$$$$$$$$$$$$$$$$$$$$$$          $$$$$$$$$$$$      $$$$$$$$$$",
"$$$$$$$$$$$$$$$$$$$$$$$$$$          $$$$$$$$$$$$      $$$$$$$$$$",
"$$$$$$$$$$$$$$$$$$$$$$$$$$$$$$$$$$$$$$$$$$$$$$$$$$$$$$$$$$$$$$$$",
"$$$$$$$$$$$$$$$$$$$$$$$$$$$$$$$$$$$$$$$$$$$$$$$$$$$$$$$$$$$$$$$$",
"$$$$$$$$$$$$$$$$$$$$$$$$$$$$$$$$$$$$$$$$$$$$$$$$$$$$$$$$$$$$$$$$",
"$$$$$$$$$$$$$$$$$$$$$$$$$$$$$$$$$$$$$$$$$$$$$$$$$$$$$$$$$$$$$$$$",
"$$$$$$$$$$$$$$$$$$$$$$$$$$$$$$$$$$$$$$$$$$$$$$$$$$$$$$$$$$$$$$$$",
"$$$$$$$$$$$$$$$$$$$$$$$$$$$$$$$$$$$$$$$$$$$$$$$$$$$$$$$$$$$$$$$$"
};
