/* XPM */
static char *result[] = {
/* columns rows colors chars-per-pixel */
"64 64 9 1 ",
"  c black",
". c #663931",
"X c #3F3F74",
"o c #8F563B",
"O c #DF7126",
"+ c #D9A066",
"@ c #306082",
"# c #EEC39A",
"$ c None",
/* pixels */
"$$$$$$$$$$$$$$$$$$$$$$$$$$                  $$$$$$$$$$$$$$$$$$$$",
"$$$$$$$$$$$$$$$$$$$$$$$$$$                  $$$$$$$$$$$$$$$$$$$$",
"$$$$$$$$$$$$$$$$$$        ++++++++++++++++++    $$$$$$$$$$$$$$$$",
"$$$$$$$$$$$$$$$$$$        ++++++++++++++++++    $$$$$$$$$$$$$$$$",
"$$$$$$$$$$$$      ++++++++################++++++  $$$$$$$$$$$$$$",
"$$$$$$$$$$$$      ++++++++################++++++  $$$$$$$$$$$$$$",
"$$$$$$$$$$  ++++++########++####################++  $$$$$$$$$$$$",
"$$$$$$$$$$  ++++++########++####################++  $$$$$$$$$$$$",
"$$$$$$$$$$  ##########    ++++++++++++++    ######++  $$$$$$$$$$",
"$$$$$$$$$$  ##########    ++++++++++++++    ######++  $$$$$$$$$$",
"$$$$$$$$  ++########++  OO              OO  ++####++  $$$$$$$$$$",
"$$$$$$$$  ++########++  OO              OO  ++####++  $$$$$$$$$$",
"$$$$$$$$  ++########++    ..............                $$$$$$$$",
"$$$$$$$$  ++########++    ..............                $$$$$$$$",
"$$$$$$$$  ++++##++++  ......oooooooooo......  XXXX@@@@  $$$$$$$$",
"$$$$$$$$  ++++##++++  ......oooooooooo......  XXXX@@@@  $$$$$$$$",
"$$$$$$$$$$  ++++    ....ooooOOOOOOOOOOoooo....  XX@@@@    $$$$$$",
"$$$$$$$$$$  ++++    ....ooooOOOOOOOOOOoooo....  XX@@@@    $$$$$$",
"$$$$$$$$$$$$$$    ..ooooOOOO..OOOOOOOOOO..oooo..  XX@@XX  $$$$$$",
"$$$$$$$$$$$$$$    ..ooooOOOO..OOOOOOOOOO..oooo..  XX@@XX  $$$$$$",
"$$$$$$$$$$$$$$  ..oooo..OO..OO..OOOOOO..OO..oo....        $$$$$$",
"$$$$$$$$$$$$$$  ..oooo..OO..OO..OOOOOO..OO..oo....        $$$$$$",
"$$$$$$$$$$$$$$  ........OO..ooOOOOOOOOOOoo..OOoo..  OO    $$$$$$",
"$$$$$$$$$$$$$$  ........OO..ooOOOOOOOOOOoo..OOoo..  OO    $$$$$$",
"$$$$$$$$$$$$  ........OOOOOOOOOOOOOOOOOOOOOOOOoo....  @@  $$$$$$",
"$$$$$$$$$$$$  ........OOOOOOOOOOOOOOOOOOOOOOOOoo....  @@  $$$$$$",
"$$$$$$$$$$  oo..oo..OOOOOOOOOOOOOO..ooOOOOOOOOOOoo..  @@  $$$$$$",
"$$$$$$$$$$  oo..oo..OOOOOOOOOOOOOO..ooOOOOOOOOOOoo..  @@  $$$$$$",
"$$$$$$$$$$  OOooooooOO....OOOOOO..OOOOooOOOO....oo..  @@  $$$$$$",
"$$$$$$$$$$  OOooooooOO....OOOOOO..OOOOooOOOO....oo..  @@  $$$$$$",
"$$$$$$$$$$  OOoooooo..OOooOOOOOO..OOOOooOOOOooOO....  @@  $$$$$$",
"$$$$$$$$$$  OOoooooo..OOooOOOOOO..OOOOooOOOOooOO....  @@  $$$$$$",
"$$$$$$$$$$  OOooooooOO....OOOOOOOO..ooOOOOOO....oo..  @@  $$$$$$",
"$$$$$$$$$$  OOooooooOO....OOOOOOOO..ooOOOOOO....oo..  @@  $$$$$$",
"$$$$$$$$$$  OO..oo..OOOOOOOOOOOOOOOOOOOOOOOOOOOOoo..  @@  $$$$$$",
"$$$$$$$$$$  OO..oo..OOOOOOOOOOOOOOOOOOOOOOOOOOOOoo..  @@  $$$$$$",
"$$$$$$$$$$$$  ........OOOOOOOOOOOOOOOOOOOOOOOOoo....  @@  $$$$$$",
"$$$$$$$$$$$$  ........OOOOOOOOOOOOOOOOOOOOOOOOoo....  @@  $$$$$$",
"$$$$$$$$$$$$$$  ........OO..ooOOOOOOOOOOoo..OOoo..  OO    $$$$$$",
"$$$$$$$$$$$$$$  ........OO..ooOOOOOOOOOOoo..OOoo..  OO    $$$$$$",
"$$$$$$$$$$$$$$  ..oooo..OO..OO..OOOOOO..OO..oo....      $$$$$$$$",
"$$$$$$$$$$$$$$  ..oooo..OO..OO..OOOOOO..OO..oo....      $$$$$$$$",
"$$$$$$$$$$        ..ooooOOOO..OOOOOOOOOO..oooo..  @@@@  $$$$$$$$",
"$$$$$$$$$$        ..ooooOOOO..OOOOOOOOOO..oooo..  @@@@  $$$$$$$$",
"$$$$$$    ++++##++  ....ooooOOOOOOOOOOoooo....  @@@@  $$$$$$$$$$",
"$$$$$$    ++++##++  ....ooooOOOOOOOOOOoooo....  @@@@  $$$$$$$$$$",
"$$$$$$  ++####++##    ......oooooooooo......  XX@@@@  $$$$$$$$$$",
"$$$$$$  ++####++##    ......oooooooooo......  XX@@@@  $$$$$$$$$$",
"$$$$  ++######++##++      ..............    XX@@@@  $$$$$$$$$$$$",
"$$$$  ++######++##++      ..............    XX@@@@  $$$$$$$$$$$$",
"$$$$  ++##########++++  OO              OO  XX@@@@  $$$$$$$$$$$$",
"$$$$  ++##########++++  OO              OO  XX@@@@  $$$$$$$$$$$$",
"$$$$  ++############++    ++++++++++  XX    @@@@  $$$$$$$$$$$$$$",
"$$$$  ++############++    ++++++++++  XX    @@@@  $$$$$$$$$$$$$$",
"$$$$$$  ++++##########++++++++########    @@XX  $$$$$$$$$$$$$$$$",
"$$$$$$  ++++##########++++++++########    @@XX  $$$$$$$$$$$$$$$$",
"$$$$$$$$    ++++++++######################    $$$$$$$$$$$$$$$$$$",
"$$$$$$$$    ++++++++######################    $$$$$$$$$$$$$$$$$$",
"$$$$$$$$$$$$      ++++++##############++    $$$$$$$$$$$$$$$$$$$$",
"$$$$$$$$$$$$      ++++++##############++    $$$$$$$$$$$$$$$$$$$$",
"$$$$$$$$$$$$$$$$$$      ++++++++++      $$$$$$$$$$$$$$$$$$$$$$$$",
"$$$$$$$$$$$$$$$$$$      ++++++++++      $$$$$$$$$$$$$$$$$$$$$$$$",
"$$$$$$$$$$$$$$$$$$$$$$$$          $$$$$$$$$$$$$$$$$$$$$$$$$$$$$$",
"$$$$$$$$$$$$$$$$$$$$$$$$          $$$$$$$$$$$$$$$$$$$$$$$$$$$$$$"
};
