/* XPM */
static char *result[] = {
/* columns rows colors chars-per-pixel */
"64 64 9 1 ",
"  c black",
". c #663931",
"X c #3F3F74",
"o c #8F563B",
"O c #DF7126",
"+ c #D9A066",
"@ c #306082",
"# c #EEC39A",
"$ c None",
/* pixels */
"$$$$$$$$$$$$$$$$$$$$$$$$$$$$$$              $$$$$$$$$$$$$$$$$$$$",
"$$$$$$$$$$$$$$$$$$$$$$$$$$$$$$              $$$$$$$$$$$$$$$$$$$$",
"$$$$$$$$$$$$$$$$$$$$$$        ++++++++++++++    $$$$$$$$$$$$$$$$",
"$$$$$$$$$$$$$$$$$$$$$$        ++++++++++++++    $$$$$$$$$$$$$$$$",
"$$$$$$$$$$$$$$        ++++################++++++  $$$$$$$$$$$$$$",
"$$$$$$$$$$$$$$        ++++################++++++  $$$$$$$$$$$$$$",
"$$$$$$$$$$$$  ++################################++  $$$$$$$$$$$$",
"$$$$$$$$$$$$  ++################################++  $$$$$$$$$$$$",
"$$$$$$$$$$$$  ####    ++++++++++++    ++++########++  $$$$$$$$$$",
"$$$$$$$$$$$$  ####    ++++++++++++    ++++########++  $$$$$$$$$$",
"$$$$$$$$$$  ++####  OO            OO  ++++++++####++  $$$$$$$$$$",
"$$$$$$$$$$  ++####  OO            OO  ++++++++####++  $$$$$$$$$$",
"$$$$$$$$$$  ++##++    ..............    ++++            $$$$$$$$",
"$$$$$$$$$$  ++##++    ..............    ++++            $$$$$$$$",
"$$$$$$$$$$  ++++++  ....oooooooooo......    XX@@@@@@@@  $$$$$$$$",
"$$$$$$$$$$  ++++++  ....oooooooooo......    XX@@@@@@@@  $$$$$$$$",
"$$$$$$$$$$$$    ....ooooOOOOOOOOOOoooo....  XX@@@@@@@@XX  $$$$$$",
"$$$$$$$$$$$$    ....ooooOOOOOOOOOOoooo....  XX@@@@@@@@XX  $$$$$$",
"$$$$$$$$$$$$    ooooOOOO..OOOOOOOOOO..oooo..  @@@@@@@@XX  $$$$$$",
"$$$$$$$$$$$$    ooooOOOO..OOOOOOOOOO..oooo..  @@@@@@@@XX  $$$$$$",
"$$$$$$$$$$  ..oooo..OO..OO..OOOOOO..OO..oo....      @@@@  $$$$$$",
"$$$$$$$$$$  ..oooo..OO..OO..OOOOOO..OO..oo....      @@@@  $$$$$$",
"$$$$$$$$$$  ........OO..ooOOOOOOOOOOoo..OOoo..  OO  @@@@  $$$$$$",
"$$$$$$$$$$  ........OO..ooOOOOOOOOOOoo..OOoo..  OO  @@@@  $$$$$$",
"$$$$$$$$  ........OOOOOOOOOOOOOOOOOOOOOOOOoo....  @@@@@@  $$$$$$",
"$$$$$$$$  ........OOOOOOOOOOOOOOOOOOOOOOOOoo....  @@@@@@  $$$$$$",
"$$$$$$  oo..oo..OOOOOOOOOOOOOO..ooOOOOOOOOOOoo..  XX@@@@  $$$$$$",
"$$$$$$  oo..oo..OOOOOOOOOOOOOO..ooOOOOOOOOOOoo..  XX@@@@  $$$$$$",
"$$$$$$  OOooooooOO....OOOOOO..OOOOooOOOO....oo..  XX@@@@  $$$$$$",
"$$$$$$  OOooooooOO....OOOOOO..OOOOooOOOO....oo..  XX@@@@  $$$$$$",
"$$$$$$  OOoooooo..OOooOOOOOO..OOOOooOOOOooOO....  XX@@@@  $$$$$$",
"$$$$$$  OOoooooo..OOooOOOOOO..OOOOooOOOOooOO....  XX@@@@  $$$$$$",
"$$$$$$  OOooooooOO....OOOOOOOO..ooOOOOOO....oo..  XX@@@@  $$$$$$",
"$$$$$$  OOooooooOO....OOOOOOOO..ooOOOOOO....oo..  XX@@@@  $$$$$$",
"$$$$$$  OO..oo..OOOOOOOOOOOOOOOOOOOOOOOOOOOOoo..  XX@@@@  $$$$$$",
"$$$$$$  OO..oo..OOOOOOOOOOOOOOOOOOOOOOOOOOOOoo..  XX@@@@  $$$$$$",
"$$$$$$$$  ........OOOOOOOOOOOOOOOOOOOOOOOOoo....  @@@@@@  $$$$$$",
"$$$$$$$$  ........OOOOOOOOOOOOOOOOOOOOOOOOoo....  @@@@@@  $$$$$$",
"$$$$$$$$$$  ........OO..ooOOOOOOOOOOoo..OOoo..  OO  @@@@  $$$$$$",
"$$$$$$$$$$  ........OO..ooOOOOOOOOOOoo..OOoo..  OO  @@@@  $$$$$$",
"$$$$$$$$$$  ..oooo..OO..OO..OOOOOO..OO..oo....      @@@@  $$$$$$",
"$$$$$$$$$$  ..oooo..OO..OO..OOOOOO..OO..oo....      @@@@  $$$$$$",
"$$$$$$$$$$    ..ooooOOOO..OOOOOOOOOO..oooo..  XX@@@@@@  $$$$$$$$",
"$$$$$$$$$$    ..ooooOOOO..OOOOOOOOOO..oooo..  XX@@@@@@  $$$$$$$$",
"$$$$$$$$    ++  ....ooooOOOOOOOOOOoooo....  XX@@@@@@XX  $$$$$$$$",
"$$$$$$$$    ++  ....ooooOOOOOOOOOOoooo....  XX@@@@@@XX  $$$$$$$$",
"$$$$$$$$  ++##    ......oooooooooo......  XX@@@@@@@@  $$$$$$$$$$",
"$$$$$$$$  ++##    ......oooooooooo......  XX@@@@@@@@  $$$$$$$$$$",
"$$$$$$  ++####++      ..............    XXXX@@@@@@XX  $$$$$$$$$$",
"$$$$$$  ++####++      ..............    XXXX@@@@@@XX  $$$$$$$$$$",
"$$$$$$  ++######++  OO              OO  XX@@@@@@@@  $$$$$$$$$$$$",
"$$$$$$  ++######++  OO              OO  XX@@@@@@@@  $$$$$$$$$$$$",
"$$$$$$  ++########    ++++++++++++++    XX@@@@@@  $$$$$$$$$$$$$$",
"$$$$$$  ++########    ++++++++++++++    XX@@@@@@  $$$$$$$$$$$$$$",
"$$$$$$$$  ++++########++++++++########    @@XX  $$$$$$$$$$$$$$$$",
"$$$$$$$$  ++++########++++++++########    @@XX  $$$$$$$$$$$$$$$$",
"$$$$$$$$$$    ++++++######################    $$$$$$$$$$$$$$$$$$",
"$$$$$$$$$$    ++++++######################    $$$$$$$$$$$$$$$$$$",
"$$$$$$$$$$$$      ++++++##############++    $$$$$$$$$$$$$$$$$$$$",
"$$$$$$$$$$$$      ++++++##############++    $$$$$$$$$$$$$$$$$$$$",
"$$$$$$$$$$$$$$$$$$      ++++++++++      $$$$$$$$$$$$$$$$$$$$$$$$",
"$$$$$$$$$$$$$$$$$$      ++++++++++      $$$$$$$$$$$$$$$$$$$$$$$$",
"$$$$$$$$$$$$$$$$$$$$$$$$          $$$$$$$$$$$$$$$$$$$$$$$$$$$$$$",
"$$$$$$$$$$$$$$$$$$$$$$$$          $$$$$$$$$$$$$$$$$$$$$$$$$$$$$$"
};
