/* XPM */
static char *result[] = {
/* columns rows colors chars-per-pixel */
"64 64 9 1 ",
"  c black",
". c #663931",
"X c #3F3F74",
"o c #8F563B",
"O c #DF7126",
"+ c #D9A066",
"@ c #306082",
"# c #EEC39A",
"$ c None",
/* pixels */
"$$$$$$$$$$$$$$$$$$$$$$$$$$$$$$          $$$$$$$$$$$$$$$$$$$$$$$$",
"$$$$$$$$$$$$$$$$$$$$$$$$$$$$$$          $$$$$$$$$$$$$$$$$$$$$$$$",
"$$$$$$$$$$$$$$$$$$$$$$$$      ++++++++++      $$$$$$$$$$$$$$$$$$",
"$$$$$$$$$$$$$$$$$$$$$$$$      ++++++++++      $$$$$$$$$$$$$$$$$$",
"$$$$$$$$$$$$$$$$$$$$    ++##############++++++      $$$$$$$$$$$$",
"$$$$$$$$$$$$$$$$$$$$    ++##############++++++      $$$$$$$$$$$$",
"$$$$$$$$$$$$$$$$$$    ######################++++++++    $$$$$$$$",
"$$$$$$$$$$$$$$$$$$    ######################++++++++    $$$$$$$$",
"$$$$$$$$$$$$$$$$  XX@@    ########++++++++##########++++  $$$$$$",
"$$$$$$$$$$$$$$$$  XX@@    ########++++++++##########++++  $$$$$$",
"$$$$$$$$$$$$$$  @@@@    XX  ++++++++++    ++############++  $$$$",
"$$$$$$$$$$$$$$  @@@@    XX  ++++++++++    ++############++  $$$$",
"$$$$$$$$$$$$  @@@@XX  OO              OO  ++++##########++  $$$$",
"$$$$$$$$$$$$  @@@@XX  OO              OO  ++++##########++  $$$$",
"$$$$$$$$$$$$  @@@@XX    ..............      ++##++######++  $$$$",
"$$$$$$$$$$$$  @@@@XX    ..............      ++##++######++  $$$$",
"$$$$$$$$$$  @@@@XX  ......oooooooooo......    ##++####++  $$$$$$",
"$$$$$$$$$$  @@@@XX  ......oooooooooo......    ##++####++  $$$$$$",
"$$$$$$$$$$  @@@@  ....ooooOOOOOOOOOOoooo....  ++##++++    $$$$$$",
"$$$$$$$$$$  @@@@  ....ooooOOOOOOOOOOoooo....  ++##++++    $$$$$$",
"$$$$$$$$  @@@@  ..oooo..OOOOOOOOOO..OOOOoooo..        $$$$$$$$$$",
"$$$$$$$$  @@@@  ..oooo..OOOOOOOOOO..OOOOoooo..        $$$$$$$$$$",
"$$$$$$$$      ....oo..OO..OOOOOO..OO..OO..oooo..  $$$$$$$$$$$$$$",
"$$$$$$$$      ....oo..OO..OOOOOO..OO..OO..oooo..  $$$$$$$$$$$$$$",
"$$$$$$    OO  ..ooOO..ooOOOOOOOOOOoo..OO........  $$$$$$$$$$$$$$",
"$$$$$$    OO  ..ooOO..ooOOOOOOOOOOoo..OO........  $$$$$$$$$$$$$$",
"$$$$$$  @@  ....ooOOOOOOOOOOOOOOOOOOOOOOOO........  $$$$$$$$$$$$",
"$$$$$$  @@  ....ooOOOOOOOOOOOOOOOOOOOOOOOO........  $$$$$$$$$$$$",
"$$$$$$  @@  ..ooOOOOOOOOOOOOOOOOOOOOOOOOOOOO..oo..OO  $$$$$$$$$$",
"$$$$$$  @@  ..ooOOOOOOOOOOOOOOOOOOOOOOOOOOOO..oo..OO  $$$$$$$$$$",
"$$$$$$  @@  ..oo....OOOOOOoo..OOOOOOOO....OOooooooOO  $$$$$$$$$$",
"$$$$$$  @@  ..oo....OOOOOOoo..OOOOOOOO....OOooooooOO  $$$$$$$$$$",
"$$$$$$  @@  ....OOooOOOOooOOOO..OOOOOOooOO..ooooooOO  $$$$$$$$$$",
"$$$$$$  @@  ....OOooOOOOooOOOO..OOOOOOooOO..ooooooOO  $$$$$$$$$$",
"$$$$$$  @@  ..oo....OOOOooOOOO..OOOOOO....OOooooooOO  $$$$$$$$$$",
"$$$$$$  @@  ..oo....OOOOooOOOO..OOOOOO....OOooooooOO  $$$$$$$$$$",
"$$$$$$  @@  ..ooOOOOOOOOOOoo..OOOOOOOOOOOOOO..oo..oo  $$$$$$$$$$",
"$$$$$$  @@  ..ooOOOOOOOOOOoo..OOOOOOOOOOOOOO..oo..oo  $$$$$$$$$$",
"$$$$$$  @@  ....ooOOOOOOOOOOOOOOOOOOOOOOOO........  $$$$$$$$$$$$",
"$$$$$$  @@  ....ooOOOOOOOOOOOOOOOOOOOOOOOO........  $$$$$$$$$$$$",
"$$$$$$    OO  ..ooOO..ooOOOOOOOOOOoo..OO........  $$$$$$$$$$$$$$",
"$$$$$$    OO  ..ooOO..ooOOOOOOOOOOoo..OO........  $$$$$$$$$$$$$$",
"$$$$$$        ....oo..OO..OOOOOO..OO..OO..oooo..  $$$$$$$$$$$$$$",
"$$$$$$        ....oo..OO..OOOOOO..OO..OO..oooo..  $$$$$$$$$$$$$$",
"$$$$$$  XX@@XX  ..oooo..OOOOOOOOOO..OOOOoooo..    $$$$$$$$$$$$$$",
"$$$$$$  XX@@XX  ..oooo..OOOOOOOOOO..OOOOoooo..    $$$$$$$$$$$$$$",
"$$$$$$    @@@@XX  ....ooooOOOOOOOOOOoooo....    ++++  $$$$$$$$$$",
"$$$$$$    @@@@XX  ....ooooOOOOOOOOOOoooo....    ++++  $$$$$$$$$$",
"$$$$$$$$  @@@@XXXX  ......oooooooooo......  ++++##++++  $$$$$$$$",
"$$$$$$$$  @@@@XXXX  ......oooooooooo......  ++++##++++  $$$$$$$$",
"$$$$$$$$                ..............    ++########++  $$$$$$$$",
"$$$$$$$$                ..............    ++########++  $$$$$$$$",
"$$$$$$$$$$  ++####++  OO              OO  ++########++  $$$$$$$$",
"$$$$$$$$$$  ++####++  OO              OO  ++########++  $$$$$$$$",
"$$$$$$$$$$  ++######    ++++++++++++++    ##########  $$$$$$$$$$",
"$$$$$$$$$$  ++######    ++++++++++++++    ##########  $$$$$$$$$$",
"$$$$$$$$$$$$  ++####################++########++++++  $$$$$$$$$$",
"$$$$$$$$$$$$  ++####################++########++++++  $$$$$$$$$$",
"$$$$$$$$$$$$$$  ++++++################++++++++      $$$$$$$$$$$$",
"$$$$$$$$$$$$$$  ++++++################++++++++      $$$$$$$$$$$$",
"$$$$$$$$$$$$$$$$    ++++++++++++++++++        $$$$$$$$$$$$$$$$$$",
"$$$$$$$$$$$$$$$$    ++++++++++++++++++        $$$$$$$$$$$$$$$$$$",
"$$$$$$$$$$$$$$$$$$$$                  $$$$$$$$$$$$$$$$$$$$$$$$$$",
"$$$$$$$$$$$$$$$$$$$$                  $$$$$$$$$$$$$$$$$$$$$$$$$$"
};
