/* XPM */
static char *result[] = {
/* columns rows colors chars-per-pixel */
"64 64 9 1 ",
"  c black",
". c #663931",
"X c #3F3F74",
"o c #8F563B",
"O c #DF7126",
"+ c #D9A066",
"@ c #306082",
"# c #EEC39A",
"$ c None",
/* pixels */
"$$$$$$$$$$$$$$$$$$$$$$$$$$$$$$          $$$$$$$$$$$$$$$$$$$$$$$$",
"$$$$$$$$$$$$$$$$$$$$$$$$$$$$$$          $$$$$$$$$$$$$$$$$$$$$$$$",
"$$$$$$$$$$$$$$$$$$$$$$$$      ++++++++++      $$$$$$$$$$$$$$$$$$",
"$$$$$$$$$$$$$$$$$$$$$$$$      ++++++++++      $$$$$$$$$$$$$$$$$$",
"$$$$$$$$$$$$$$$$$$$$    ++##############++++++      $$$$$$$$$$$$",
"$$$$$$$$$$$$$$$$$$$$    ++##############++++++      $$$$$$$$$$$$",
"$$$$$$$$$$$$$$$$$$    ######################++++++    $$$$$$$$$$",
"$$$$$$$$$$$$$$$$$$    ######################++++++    $$$$$$$$$$",
"$$$$$$$$$$$$$$$$  XX@@    ########++++++++########++++  $$$$$$$$",
"$$$$$$$$$$$$$$$$  XX@@    ########++++++++########++++  $$$$$$$$",
"$$$$$$$$$$$$$$  @@@@@@XX    ++++++++++++++    ########++  $$$$$$",
"$$$$$$$$$$$$$$  @@@@@@XX    ++++++++++++++    ########++  $$$$$$",
"$$$$$$$$$$$$  @@@@@@@@XX  OO              OO  ++######++  $$$$$$",
"$$$$$$$$$$$$  @@@@@@@@XX  OO              OO  ++######++  $$$$$$",
"$$$$$$$$$$  XX@@@@@@XXXX    ..............      ++####++  $$$$$$",
"$$$$$$$$$$  XX@@@@@@XXXX    ..............      ++####++  $$$$$$",
"$$$$$$$$$$  @@@@@@@@XX  ......oooooooooo......    ##++  $$$$$$$$",
"$$$$$$$$$$  @@@@@@@@XX  ......oooooooooo......    ##++  $$$$$$$$",
"$$$$$$$$  XX@@@@@@XX  ....ooooOOOOOOOOOOoooo....  ++    $$$$$$$$",
"$$$$$$$$  XX@@@@@@XX  ....ooooOOOOOOOOOOoooo....  ++    $$$$$$$$",
"$$$$$$$$  @@@@@@XX  ..oooo..OOOOOOOOOO..OOOOoooo..    $$$$$$$$$$",
"$$$$$$$$  @@@@@@XX  ..oooo..OOOOOOOOOO..OOOOoooo..    $$$$$$$$$$",
"$$$$$$  @@@@      ....oo..OO..OOOOOO..OO..OO..oooo..  $$$$$$$$$$",
"$$$$$$  @@@@      ....oo..OO..OOOOOO..OO..OO..oooo..  $$$$$$$$$$",
"$$$$$$  @@@@  OO  ..ooOO..ooOOOOOOOOOOoo..OO........  $$$$$$$$$$",
"$$$$$$  @@@@  OO  ..ooOO..ooOOOOOOOOOOoo..OO........  $$$$$$$$$$",
"$$$$$$  @@@@@@  ....ooOOOOOOOOOOOOOOOOOOOOOOOO........  $$$$$$$$",
"$$$$$$  @@@@@@  ....ooOOOOOOOOOOOOOOOOOOOOOOOO........  $$$$$$$$",
"$$$$$$  @@@@XX  ..ooOOOOOOOOOOOOOOOOOOOOOOOOOOOO..oo..OO  $$$$$$",
"$$$$$$  @@@@XX  ..ooOOOOOOOOOOOOOOOOOOOOOOOOOOOO..oo..OO  $$$$$$",
"$$$$$$  @@@@XX  ..oo....OOOOOOoo..OOOOOOOO....OOooooooOO  $$$$$$",
"$$$$$$  @@@@XX  ..oo....OOOOOOoo..OOOOOOOO....OOooooooOO  $$$$$$",
"$$$$$$  @@@@XX  ....OOooOOOOooOOOO..OOOOOOooOO..ooooooOO  $$$$$$",
"$$$$$$  @@@@XX  ....OOooOOOOooOOOO..OOOOOOooOO..ooooooOO  $$$$$$",
"$$$$$$  @@@@XX  ..oo....OOOOooOOOO..OOOOOO....OOooooooOO  $$$$$$",
"$$$$$$  @@@@XX  ..oo....OOOOooOOOO..OOOOOO....OOooooooOO  $$$$$$",
"$$$$$$  @@@@XX  ..ooOOOOOOOOOOoo..OOOOOOOOOOOOOO..oo..oo  $$$$$$",
"$$$$$$  @@@@XX  ..ooOOOOOOOOOOoo..OOOOOOOOOOOOOO..oo..oo  $$$$$$",
"$$$$$$  @@@@@@  ....ooOOOOOOOOOOOOOOOOOOOOOOOO........  $$$$$$$$",
"$$$$$$  @@@@@@  ....ooOOOOOOOOOOOOOOOOOOOOOOOO........  $$$$$$$$",
"$$$$$$  @@@@  OO  ..ooOO..ooOOOOOOOOOOoo..OO........  $$$$$$$$$$",
"$$$$$$  @@@@  OO  ..ooOO..ooOOOOOOOOOOoo..OO........  $$$$$$$$$$",
"$$$$$$  @@@@      ....oo..OO..OOOOOO..OO..OO..oooo..  $$$$$$$$$$",
"$$$$$$  @@@@      ....oo..OO..OOOOOO..OO..OO..oooo..  $$$$$$$$$$",
"$$$$$$  XX@@@@@@@@  ..oooo..OOOOOOOOOO..OOOOoooo    $$$$$$$$$$$$",
"$$$$$$  XX@@@@@@@@  ..oooo..OOOOOOOOOO..OOOOoooo    $$$$$$$$$$$$",
"$$$$$$  XX@@@@@@@@XX  ....ooooOOOOOOOOOOoooo....    $$$$$$$$$$$$",
"$$$$$$  XX@@@@@@@@XX  ....ooooOOOOOOOOOOoooo....    $$$$$$$$$$$$",
"$$$$$$$$  @@@@@@@@XX    ......oooooooooo....  ++++++  $$$$$$$$$$",
"$$$$$$$$  @@@@@@@@XX    ......oooooooooo....  ++++++  $$$$$$$$$$",
"$$$$$$$$            ++++    ..............    ++##++  $$$$$$$$$$",
"$$$$$$$$            ++++    ..............    ++##++  $$$$$$$$$$",
"$$$$$$$$$$  ++####++++++++  OO            OO  ####++  $$$$$$$$$$",
"$$$$$$$$$$  ++####++++++++  OO            OO  ####++  $$$$$$$$$$",
"$$$$$$$$$$  ++########++++    ++++++++++++    ####  $$$$$$$$$$$$",
"$$$$$$$$$$  ++########++++    ++++++++++++    ####  $$$$$$$$$$$$",
"$$$$$$$$$$$$  ++################################++  $$$$$$$$$$$$",
"$$$$$$$$$$$$  ++################################++  $$$$$$$$$$$$",
"$$$$$$$$$$$$$$  ++++++################++++        $$$$$$$$$$$$$$",
"$$$$$$$$$$$$$$  ++++++################++++        $$$$$$$$$$$$$$",
"$$$$$$$$$$$$$$$$    ++++++++++++++        $$$$$$$$$$$$$$$$$$$$$$",
"$$$$$$$$$$$$$$$$    ++++++++++++++        $$$$$$$$$$$$$$$$$$$$$$",
"$$$$$$$$$$$$$$$$$$$$              $$$$$$$$$$$$$$$$$$$$$$$$$$$$$$",
"$$$$$$$$$$$$$$$$$$$$              $$$$$$$$$$$$$$$$$$$$$$$$$$$$$$"
};
