/* XPM */
static char *result[] = {
/* columns rows colors chars-per-pixel */
"64 64 9 1 ",
"  c black",
". c #663931",
"X c #3F3F74",
"o c #8F563B",
"O c #DF7126",
"+ c #D9A066",
"@ c #306082",
"# c #EEC39A",
"$ c None",
/* pixels */
"$$$$$$$$$$$$$$$$$$$$$$$$$$$$$$$$$$$$$$$$$$$$$$$$$$$$$$$$$$$$$$$$",
"$$$$$$$$$$$$$$$$$$$$$$$$$$$$$$$$$$$$$$$$$$$$$$$$$$$$$$$$$$$$$$$$",
"$$$$$$$$$$$$$$$$$$$$$$$$$$$$$$$$$$$$$$$$$$$$$$$$$$$$$$$$$$$$$$$$",
"$$$$$$$$$$$$$$$$$$$$$$$$$$$$$$$$$$$$$$$$$$$$$$$$$$$$$$$$$$$$$$$$",
"$$$$$$$$$$$$$$$$$$$$$$$$$$$$$$$$$$$$$$$$$$$$$$$$$$$$$$$$$$$$$$$$",
"$$$$$$$$$$$$$$$$$$$$$$$$$$$$$$$$$$$$$$$$$$$$$$$$$$$$$$$$$$$$$$$$",
"$$$$$$$$$$      $$$$$$$$$$$$          $$$$$$$$$$$$$$$$$$$$$$$$$$",
"$$$$$$$$$$      $$$$$$$$$$$$          $$$$$$$$$$$$$$$$$$$$$$$$$$",
"$$$$$$$$  ++++++    $$$$$$  OOOOOOOOoo  $$$$$$$$$$$$$$$$$$$$$$$$",
"$$$$$$$$  ++++++    $$$$$$  OOOOOOOOoo  $$$$$$$$$$$$$$$$$$$$$$$$",
"$$$$$$  ++######++        ....oooooo....    $$$$      $$$$$$$$$$",
"$$$$$$  ++######++        ....oooooo....    $$$$      $$$$$$$$$$",
"$$$$    ++########++  ......oooooooooo......    ++++++    $$$$$$",
"$$$$    ++########++  ......oooooooooo......    ++++++    $$$$$$",
"$$$$  ++######++    ..oo......oooooo......oo    ++######++  $$$$",
"$$$$  ++######++    ..oo......oooooo......oo    ++######++  $$$$",
"$$$$  ++####++    ..oooo....OOOO..OOOO....oooo..++++######  $$$$",
"$$$$  ++####++    ..oooo....OOOO..OOOO....oooo..++++######  $$$$",
"$$  ++++##      ....oo....OOOO..OO..OOOO....oo..        ##  $$$$",
"$$  ++++##      ....oo....OOOO..OO..OOOO....oo..        ##  $$$$",
"$$  ++####  OO  ..ooOOOOOOOOOO..oo..OOOOOOOOOOoo..  OO  ##  $$$$",
"$$  ++####  OO  ..ooOOOOOOOOOO..oo..OOOOOOOOOOoo..  OO  ##  $$$$",
"$$  ++##++++  ....ooOO....OOOOOOOOOOOOOO....OOoo....  ++##++  $$",
"$$  ++##++++  ....ooOO....OOOOOOOOOOOOOO....OOoo....  ++##++  $$",
"  ++####++++  ..ooOO..OOooOOOOOOOOOOOOOOooOO..OOoo..  ++##++  $$",
"  ++####++++  ..ooOO..OOooOOOOOOOOOOOOOOooOO..OOoo..  ++##++  $$",
"  ++####++++  ..ooOOOO..OOOOOOOOOOOOOOOOOO..OOOOoo..  ++####  $$",
"  ++####++++  ..ooOOOO..OOOOOOOOOOOOOOOOOO..OOOOoo..  ++####  $$",
"  ++####++++  ..ooOOOOOOOOOOOOOO....OOOOOOOOOOOOoo..  ++####  $$",
"  ++####++++  ..ooOOOOOOOOOOOOOO....OOOOOOOOOOOOoo..  ++####  $$",
"  ++######++  ..ooOOOOOOOOOOOO..OOOO..OOOOOOOOOOoo..  ++####++  ",
"  ++######++  ..ooOOOOOOOOOOOO..OOOO..OOOOOOOOOOoo..  ++####++  ",
"  ++######++  ..ooOOOOOOOOOOOOooOOOOooOOOOOOOOOOoo..  ++####++  ",
"  ++######++  ..ooOOOOOOOOOOOOooOOOOooOOOOOOOOOOoo..  ++####++  ",
"$$  ######++  ....ooOO..OOOOOOOOooooOOOOOO..OOoo....OO  ####++  ",
"$$  ######++  ....ooOO..OOOOOOOOooooOOOOOO..OOoo....OO  ####++  ",
"$$  ######  OO  ..oo..OOooOOOOOOOOOOOOOOooOO..oo..      ####++  ",
"$$  ######  OO  ..oo..OOooOOOOOOOOOOOOOOooOO..oo..      ####++  ",
"$$  ++##        ....oo....OOOOOOOOOOOOOO....oo....  ++++####++  ",
"$$  ++##        ....oo....OOOOOOOOOOOOOO....oo....  ++++####++  ",
"$$$$  ##  XXXXXX  ..ooooOOOOOO..oo..OOOOOOoooo..  ++++++####++  ",
"$$$$  ##  XXXXXX  ..ooooOOOOOO..oo..OOOOOOoooo..  ++++++####++  ",
"$$$$    @@@@@@XXXX  ....ooooOO..OO..OOoooo....    ++++####++++  ",
"$$$$    @@@@@@XXXX  ....ooooOO..OO..OOoooo....    ++++####++++  ",
"$$$$$$  XX@@@@@@@@XX  ......oooo..oooo......  XXXX  ++####++  $$",
"$$$$$$  XX@@@@@@@@XX  ......oooo..oooo......  XXXX  ++####++  $$",
"$$$$$$$$  @@@@@@@@@@XX    ..............    @@@@@@  ######++  $$",
"$$$$$$$$  @@@@@@@@@@XX    ..............    @@@@@@  ######++  $$",
"$$$$$$$$$$  @@@@@@@@@@  OO              OO  @@@@@@  ####++  $$$$",
"$$$$$$$$$$  @@@@@@@@@@  OO              OO  @@@@@@  ####++  $$$$",
"$$$$$$$$$$$$  XX@@@@@@    @@XXXXXXXXXX@@    @@@@@@  ++++  $$$$$$",
"$$$$$$$$$$$$  XX@@@@@@    @@XXXXXXXXXX@@    @@@@@@  ++++  $$$$$$",
"$$$$$$$$$$$$$$    XX@@@@@@@@@@@@@@@@@@@@@@@@@@@@@@      $$$$$$$$",
"$$$$$$$$$$$$$$    XX@@@@@@@@@@@@@@@@@@@@@@@@@@@@@@      $$$$$$$$",
"$$$$$$$$$$$$$$$$$$    @@@@@@@@@@@@@@@@@@@@@@XXXX    $$$$$$$$$$$$",
"$$$$$$$$$$$$$$$$$$    @@@@@@@@@@@@@@@@@@@@@@XXXX    $$$$$$$$$$$$",
"$$$$$$$$$$$$$$$$$$$$$$                          $$$$$$$$$$$$$$$$",
"$$$$$$$$$$$$$$$$$$$$$$                          $$$$$$$$$$$$$$$$",
"$$$$$$$$$$$$$$$$$$$$$$$$$$$$$$$$$$$$$$$$$$$$$$$$$$$$$$$$$$$$$$$$",
"$$$$$$$$$$$$$$$$$$$$$$$$$$$$$$$$$$$$$$$$$$$$$$$$$$$$$$$$$$$$$$$$",
"$$$$$$$$$$$$$$$$$$$$$$$$$$$$$$$$$$$$$$$$$$$$$$$$$$$$$$$$$$$$$$$$",
"$$$$$$$$$$$$$$$$$$$$$$$$$$$$$$$$$$$$$$$$$$$$$$$$$$$$$$$$$$$$$$$$",
"$$$$$$$$$$$$$$$$$$$$$$$$$$$$$$$$$$$$$$$$$$$$$$$$$$$$$$$$$$$$$$$$",
"$$$$$$$$$$$$$$$$$$$$$$$$$$$$$$$$$$$$$$$$$$$$$$$$$$$$$$$$$$$$$$$$"
};
