/* XPM */
static char *result[] = {
/* columns rows colors chars-per-pixel */
"64 64 6 1 ",
"  c #4B692F",
". c #696A6A",
"X c #37946E",
"o c #847E87",
"O c #9BADB7",
"+ c #CBDBFC",
/* pixels */
"oooooo    oooooo....................oo      XX  ....oooooooooooo",
"oooooo    oooooo....................oo      XX  ....oooooooooooo",
"oo++++XXOOOO++OOoo++++OO++OO++OO..OO++XX....OOOOooOO++++++++++OO",
"oo++++XXOOOO++OOoo++++OO++OO++OO..OO++XX....OOOOooOO++++++++++OO",
"..OO++++++++++++..OO++++++++++OO..++++..++++++OOoo++++++++++++++",
"..OO++++++++++++..OO++++++++++OO..++++..++++++OOoo++++++++++++++",
"ooOO++++++++++OOoo++++++++++++++oo++OO++++++++++..++++++++++OO++",
"ooOO++++++++++OOoo++++++++++++++oo++OO++++++++++..++++++++++OO++",
"oo++++++++++++OOoo++++++++++++++ooOO++++++++++++oo++++++++++++++",
"oo++++++++++++OOoo++++++++++++++ooOO++++++++++++oo++++++++++++++",
"oo++++++++++++++oo++++++++++++++oo++++++++++++++ooOO++++++++++++",
"oo++++++++++++++oo++++++++++++++oo++++++++++++++ooOO++++++++++++",
"oo++++++++++++++ooOO++++++++++++ooOO++++++++++++oo++OO++++++OOOO",
"oo++++++++++++++ooOO++++++++++++ooOO++++++++++++oo++OO++++++OOOO",
"..OOOOOOOOOOOO++ooOOOO++++OOOO++ooOOOO++OO++++++ooOO++++++OO++OO",
"..OOOOOOOOOOOO++ooOOOO++++OOOO++ooOOOO++OO++++++ooOO++++++OO++OO",
"....oooooooooooooooooooooooooooo    oooooooooooooo....oooooooo..",
"....oooooooooooooooooooooooooooo    oooooooooooooo....oooooooo..",
"..OO++OO++++++++ooOO++++++OOOOXXooOOOO++++++OOOO..OOOO++++++++OO",
"..OO++OO++++++++ooOO++++++OOOOXXooOOOO++++++OOOO..OOOO++++++++OO",
"..OO++++++++++OOooOO++++++++++XXooOO++++++++++OOoo++++++++++++OO",
"..OO++++++++++OOooOO++++++++++XXooOO++++++++++OOoo++++++++++++OO",
"..++++++++++++++oo++++++++++++OOooOO++++++++++++ooOO++++++++++++",
"..++++++++++++++oo++++++++++++OOooOO++++++++++++ooOO++++++++++++",
"ooOO++++++++++++oo++++++++++++OOoo++++++++++++++  OO++++++++OO++",
"ooOO++++++++++++oo++++++++++++OOoo++++++++++++++  OO++++++++OO++",
"oo++++++++++++OOooOO++++++++++++..++++++++++++++oo++++++++++++++",
"oo++++++++++++OOooOO++++++++++++..++++++++++++++oo++++++++++++++",
"..++++++++++++++oo++++++++++OOOOoo++++++++++++++oo++++++++OOOO++",
"..++++++++++++++oo++++++++++OOOOoo++++++++++++++oo++++++++OOOO++",
"  ++OO++++++++OOooOOOO++++++OOOOooOOOOOOOOOOOOOOoo++OOOOOOOOOOOO",
"  ++OO++++++++OOooOOOO++++++OOOOooOOOOOOOOOOOOOOoo++OOOOOOOOOOOO",
"  oooooooooooooooooooo....oooooooooo....oooooooooooooo....oo..oo",
"  oooooooooooooooooooo....oooooooooo....oooooooooooooo....oo..oo",
"  OOOOOO++OO++OOooOOOO++++++++OO..OOOO++++++++OOooOO++++++++OOOO",
"  OOOOOO++OO++OOooOOOO++++++++OO..OOOO++++++++OOooOO++++++++OOOO",
"  ++++++++++++++ooOO++++++++++++..OO++++++++++++oo++++++++++++++",
"  ++++++++++++++ooOO++++++++++++..OO++++++++++++oo++++++++++++++",
"oo++++++++++++++..OO++++++++++++ooOO++++++++++OOoo++++++++++++OO",
"oo++++++++++++++..OO++++++++++++ooOO++++++++++OOoo++++++++++++OO",
"oo++++++++++++++oo++++++++++++++oo++++++++++++++oo++++++++++++OO",
"oo++++++++++++++oo++++++++++++++oo++++++++++++++oo++++++++++++OO",
"oo++++++++++++++..++++++++++++++oo++++++++++++++..++++++++++++OO",
"oo++++++++++++++..++++++++++++++oo++++++++++++++..++++++++++++OO",
"oo++++++++++++OO..OO++++++++++++ooOO++++++++++OOooOOOO++++++++OO",
"oo++++++++++++OO..OO++++++++++++ooOO++++++++++OOooOOOO++++++++OO",
"ooOO++++OOOOOOOOooOO++++++OOOOOO..OO++OOOOOOOO++oo++++OOOOOOOO++",
"ooOO++++OOOOOOOOooOO++++++OOOOOO..OO++OOOOOOOO++oo++++OOOOOOOO++",
"oooo..oooo..oooooooooooooooo....oooooooo....oooo..oooo..oo    ..",
"oooo..oooo..oooooooooooooooo....oooooooo....oooo..oooo..oo    ..",
"oo++OO++++++OOOOooOOOOOOOO++OOOOooooOO++++++OOOO..OO++++++++++OO",
"oo++OO++++++OOOOooOOOOOOOO++OOOOooooOO++++++OOOO..OO++++++++++OO",
"..++++++++++++OO..OO++++++++++++oo++++++++++++++oo++++++++++++++",
"..++++++++++++OO..OO++++++++++++oo++++++++++++++oo++++++++++++++",
"..++++++++++++OOoo++++++++++++++  ++++++++++++++..++++++++++++++",
"..++++++++++++OOoo++++++++++++++  ++++++++++++++..++++++++++++++",
"ooOO++++++++++++..++++++++++++++..++++++++++++++..++++++++++++++",
"ooOO++++++++++++..++++++++++++++..++++++++++++++..++++++++++++++",
"  ++++++++++++++oo++++++++++++++  ++++++++++++++  ++++++++++++++",
"  ++++++++++++++oo++++++++++++++  ++++++++++++++  ++++++++++++++",
"..++++++++++++++  OO++++++++++OO..OO++++++++++++..OO++++++++++OO",
"..++++++++++++++  OO++++++++++OO..OO++++++++++++..OO++++++++++OO",
"ooOO++OO++++OOOO  OO++++++++++OO..++++++++++OOOO  OOOO++++++OOOO",
"ooOO++OO++++OOOO  OO++++++++++OO..++++++++++OOOO  OOOO++++++OOOO"
};
