/* XPM */
static char *result[] = {
/* columns rows colors chars-per-pixel */
"64 64 4 1 ",
"  c #AC3232",
". c #D95763",
"X c #847E87",
"o c #9BADB7",
/* pixels */
"..............  XX..........  ................  XX..........  ..",
"..............  XX..........  ................  XX..........  ..",
"................oo..  ..........................XX..  ..........",
"................oo..  ..........................XX..  ..........",
"................XX..............................oo..............",
"................XX..............................oo..............",
"..  ............oo................  ............XX..............",
"..  ............oo................  ............XX..............",
"................oo..............................XX..............",
"................oo..............................XX..............",
"..............  XX......    ..................  XX......    ....",
"..............  XX......    ..................  XX......    ....",
"                XX                              XX              ",
"                XX                              XX              ",
"XXooXXooooooooooooooooooooooooooooooooooXXXXXXXXXXooooXXXXoooooo",
"XXooXXooooooooooooooooooooooooooooooooooXXXXXXXXXXooooXXXXoooooo",
"......  XX..........  ................  XX..........  ......  oo",
"......  XX..........  ................  XX..........  ......  oo",
"........oo..  ..........................oo..  ................  ",
"........oo..  ..........................oo..  ................  ",
"........oo..............................oo....................  ",
"........oo..............................oo....................  ",
"  ......XX................  ............XX................  ....",
"  ......XX................  ............XX................  ....",
"........oo..............................XX......................",
"........oo..............................XX......................",
"......  oo......    ..................  oo......    ............",
"......  oo......    ..................  oo......    ............",
"        oo                              XX                      ",
"        oo                              XX                      ",
"ooooooooooooooooooooooooXXXXXXXXXXXXooXXXXXXooXXXXXXooooXXooXXoo",
"ooooooooooooooooooooooooXXXXXXXXXXXXooXXXXXXooXXXXXXooooXXooXXoo",
"..........  ................  oo..........  ................  oo",
"..........  ................  oo..........  ................  oo",
"..  ..........................oo..  ..........................oo",
"..  ..........................oo..  ..........................oo",
"..............................XX..............................oo",
"..............................XX..............................oo",
"................  ............oo................  ............oo",
"................  ............oo................  ............oo",
"..............................oo..............................oo",
"..............................oo..............................oo",
"......    ..................  oo......    ..................  oo",
"......    ..................  oo......    ..................  oo",
"                              oo                              oo",
"                              oo                              oo",
"XXooooooooooooooooooooooooXXXXooooooooooXXooooooooooooooooXXooXX",
"XXooooooooooooooooooooooooXXXXooooooooooXXooooooooooooooooXXooXX",
"......................oo..........  ................  ..XX....  ",
"......................oo..........  ................  ..XX....  ",
"........  ..........  oo..  ............................oo......",
"........  ..........  oo..  ............................oo......",
"......................oo................................oo......",
"......................oo................................oo......",
"......................oo................  ..............XX......",
"......................oo................  ..............XX......",
"  ....................XX................................XX......",
"  ....................XX................................XX......",
"..................    oo......    ......................XX......",
"..................    oo......    ......................XX......",
"                      XX                                oo      ",
"                      XX                                oo      ",
"ooooooooooooooooooooooooooooooooooooooooXXooooooooXXXXXXoooooooo",
"ooooooooooooooooooooooooooooooooooooooooXXooooooooXXXXXXoooooooo"
};
