/* XPM */
static char *result[] = {
/* columns rows colors chars-per-pixel */
"64 64 9 1 ",
"  c #4B692F",
". c #696A6A",
"X c #6ABE30",
"o c #37946E",
"O c #FBF236",
"+ c #99E550",
"@ c #847E87",
"# c #9BADB7",
"$ c #CBDBFC",
/* pixels */
"@@@@@@    @@@@@@....................@@      oo  ....@@@@@@@@@@@@",
"@@@@@@    @@@@@@....................@@      oo  ....@@@@@@@@@@@@",
"@@$$$$oo####$$##@@$$$$##$$##$$##..##$$oo....####@@##$$$$$$$$$$##",
"@@$$$$oo####$$##@@$$$$##$$##$$##..##$$oo....####@@##$$$$$$$$$$##",
"..##$$$$$$$$$$$$..##$$$$$$$$$$##..$$$$..$$$$$$##@@$$$$$$$$$$$$$$",
"..##$$$$$$$$$$$$..##$$$$$$$$$$##..$$$$..$$$$$$##@@$$$$$$$$$$$$$$",
"@@##$$$$$$$$$$##@@$$$$$$$$$$$$$$@@$$##$$$$$$$$$$..$$$$$$$$$$##$$",
"@@##$$$$$$$$$$##@@$$$$$$$$$$$$$$@@$$##$$$$$$$$$$..$$$$$$$$$$##$$",
"@@$$$$$$$$$$$$##@@$$$$$$$$$$$$$$@@##$$$$$$$$$$$$@@$$$$$$$$$$$$$$",
"@@$$$$$$$$$$$$##@@$$$$$$$$$$$$$$@@##$$$$$$$$$$$$@@$$$$$$$$$$$$$$",
"@@$$$$$$$$$$$$$$@@$$$$$$$$$$$$$$@@$$$$$$$$$$$$$$@@##$$$$$$$$$$$$",
"@@$$$$$$$$$$$$$$@@$$$$$$$$$$$$$$@@$$$$$$$$$$$$$$@@##$$$$$$$$$$$$",
"@@$$OOOO$$$$$$$$@@##$$$$$$$$$$$$@@##$$$$$$$$$$$$@@$$##$$OOOO####",
"@@$$OOOO$$$$$$$$@@##$$$$$$$$$$$$@@##$$$$$$$$$$$$@@$$##$$OOOO####",
"..OOXXXXOOOOOOOOOOOOOOOOOOOOOOOOOOOOOOOOOOOOOOOOOOOOOOOOXXXXOO##",
"..OOXXXXOOOOOOOOOOOOOOOOOOOOOOOOOOOOOOOOOOOOOOOOOOOOOOOOXXXXOO##",
"..OOXX++++XXXXXXXXXXXXXXXXXXXXXXXXXXXXXXXXXXXXXXXXXXXXXX++XXOO..",
"..OOXX++++XXXXXXXXXXXXXXXXXXXXXXXXXXXXXXXXXXXXXXXXXXXXXX++XXOO..",
"..OOXX++oo++++oo++++++++++++++++++++++++++++++++oo++++oo++XXOO##",
"..OOXX++oo++++oo++++++++++++++++++++++++++++++++oo++++oo++XXOO##",
"..OOXX++++oooo++++++++++++oooooooooooo++++++XX++++oooo++++XXOO##",
"..OOXX++++oooo++++++++++++oooooooooooo++++++XX++++oooo++++XXOO##",
"..OOXX++++oooo++++++++oooooooooooooooooooo++++++++oooo++++XXOO$$",
"..OOXX++++oooo++++++++oooooooooooooooooooo++++++++oooo++++XXOO$$",
"@@OOXX++oo++++oo++++ooXXoo++++++++++oooooooo++++oo++XXoo++XXOO$$",
"@@OOXX++oo++++oo++++ooXXoo++++++++++oooooooo++++oo++XXoo++XXOO$$",
"@@OOXX++++++++++++ooXXXXXXoo++oooo++++ooXXXXooXX++++++++++XXOO$$",
"@@OOXX++++++++++++ooXXXXXXoo++oooo++++ooXXXXooXX++++++++++XXOO$$",
"..OOXX++++XX++++++ooXXXXoo++++++++++ooooXXXXoo++++++++++++XXOO$$",
"..OOXX++++XX++++++ooXXXXoo++++++++++ooooXXXXoo++++++++++++XXOO$$",
"  OOXX++++++++++++ooXXXXoo++oooo++ooooooXXXXoo++++++XX++++XXOO##",
"  OOXX++++++++++++ooXXXXoo++oooo++ooooooXXXXoo++++++XX++++XXOO##",
"  OOXX++++oo++++++++ooXXoooo++++++ooooooXXoo++++++oo++++++XXOO@@",
"  OOXX++++oo++++++++ooXXoooo++++++ooooooXXoo++++++oo++++++XXOO@@",
"  OOXX++oooo++++++++++oooooooooooooooooooo++++++oooo++++++XXOO##",
"  OOXX++oooo++++++++++oooooooooooooooooooo++++++oooo++++++XXOO##",
"  OOXX++++oo++XX++++++++XXoooooooooooo++++++++++++oo++++++XXOO$$",
"  OOXX++++oo++XX++++++++XXoooooooooooo++++++++++++oo++++++XXOO$$",
"@@OOXXXXoooooo++++++++++++++++++++++++++++++++++oooooo++XXXXOO##",
"@@OOXXXXoooooo++++++++++++++++++++++++++++++++++oooooo++XXXXOO##",
"@@OOXXXXXXXXXXXX++++++++++++++++++++++++++++++XXXXXXXXXXXXXXOO##",
"@@OOXXXXXXXXXXXX++++++++++++++++++++++++++++++XXXXXXXXXXXXXXOO##",
"@@OOooooXXXXXXXXXXXXXXXXXXXXXXXXXXXXXXXXXXXXXXXXXXXXXXXXooooOO##",
"@@OOooooXXXXXXXXXXXXXXXXXXXXXXXXXXXXXXXXXXXXXXXXXXXXXXXXooooOO##",
"@@OO    oooooooooooooooooooooooooooooooooooooooooooooooo    OO##",
"@@OO    oooooooooooooooooooooooooooooooooooooooooooooooo    OO##",
"@@OOoooo                                                    OO$$",
"@@OOoooo                                                    OO$$",
"@@OO    oooooooooooooooooooooooooooooooo                    OO..",
"@@OO    oooooooooooooooooooooooooooooooo                    OO..",
"@@$$OOOO                                                OOOO$$##",
"@@$$OOOO                                                OOOO$$##",
"..$$$$$$OOOOOOOOOOOOOOOOOOOOOOOOOOOOOOOOOOOOOOOOOOOOOOOO$$$$$$$$",
"..$$$$$$OOOOOOOOOOOOOOOOOOOOOOOOOOOOOOOOOOOOOOOOOOOOOOOO$$$$$$$$",
"..$$$$$$$$$$$$##@@$$$$$$$$$$$$$$  $$$$$$$$$$$$$$..$$$$$$$$$$$$$$",
"..$$$$$$$$$$$$##@@$$$$$$$$$$$$$$  $$$$$$$$$$$$$$..$$$$$$$$$$$$$$",
"@@##$$$$$$$$$$$$..$$$$$$$$$$$$$$..$$$$$$$$$$$$$$..$$$$$$$$$$$$$$",
"@@##$$$$$$$$$$$$..$$$$$$$$$$$$$$..$$$$$$$$$$$$$$..$$$$$$$$$$$$$$",
"  $$$$$$$$$$$$$$@@$$$$$$$$$$$$$$  $$$$$$$$$$$$$$  $$$$$$$$$$$$$$",
"  $$$$$$$$$$$$$$@@$$$$$$$$$$$$$$  $$$$$$$$$$$$$$  $$$$$$$$$$$$$$",
"..$$$$$$$$$$$$$$  ##$$$$$$$$$$##..##$$$$$$$$$$$$..##$$$$$$$$$$##",
"..$$$$$$$$$$$$$$  ##$$$$$$$$$$##..##$$$$$$$$$$$$..##$$$$$$$$$$##",
"@@##$$##$$$$####  ##$$$$$$$$$$##..$$$$$$$$$$####  ####$$$$$$####",
"@@##$$##$$$$####  ##$$$$$$$$$$##..$$$$$$$$$$####  ####$$$$$$####"
};
