/* XPM */
static char *result[] = {
/* columns rows colors chars-per-pixel */
"64 64 6 1 ",
"  c #663931",
". c #8F563B",
"X c #BB7547",
"o c #847E87",
"O c #9BADB7",
"+ c #CBDBFC",
/* pixels */
"                                                                ",
"                                                                ",
"  XXXXXXXXXXXXXXXXXXXXXXXXXXXXXX......XXXXXXXXXXXXXXXXXXXX....  ",
"  XXXXXXXXXXXXXXXXXXXXXXXXXXXXXX......XXXXXXXXXXXXXXXXXXXX....  ",
"  XXXXXXXXXXXXXXXXXXXXXXXXXXXXXXXXXXXXXXXXXXXXXXXXXXXXXXXXXXXX  ",
"  XXXXXXXXXXXXXXXXXXXXXXXXXXXXXXXXXXXXXXXXXXXXXXXXXXXXXXXXXXXX  ",
"  XXXXXXXXXXXXXXXXXXXXXXXXXXXXXXXXXXXXXXXXXXXXXX..............  ",
"  XXXXXXXXXXXXXXXXXXXXXXXXXXXXXXXXXXXXXXXXXXXXXX..............  ",
"  XXXXXXXX......................................XXXXXXXXXXXXXX  ",
"  XXXXXXXX......................................XXXXXXXXXXXXXX  ",
"  ....................XXXXXXXXXXXXXXXXXXXXXXXXXXXXXXXXXXXXXXXX  ",
"  ....................XXXXXXXXXXXXXXXXXXXXXXXXXXXXXXXXXXXXXXXX  ",
"  ..XXXXXXXXXXXXXXXXXXXXXXXXXXXXXXXXXXXXXXXXXXXXXXXX..........  ",
"  ..XXXXXXXXXXXXXXXXXXXXXXXXXXXXXXXXXXXXXXXXXXXXXXXX..........  ",
"                                                                ",
"                                                                ",
"  ..................XXXXXXXXXXXXXXXXXXXXXXXXXXXXXXXXXXXXXX....  ",
"  ..................XXXXXXXXXXXXXXXXXXXXXXXXXXXXXXXXXXXXXX....  ",
"  XXXXXXXXXXXXXXXXXXXXXXXXXXXXXXXXXX..........................  ",
"  XXXXXXXXXXXXXXXXXXXXXXXXXXXXXXXXXX..........................  ",
"  XXXXXXXXXXXXXXXXXXXXXXXXXXXXXXXXXXXXXXXXXXXXXXXXXXXXXXXXXXXX  ",
"  XXXXXXXXXXXXXXXXXXXXXXXXXXXXXXXXXXXXXXXXXXXXXXXXXXXXXXXXXXXX  ",
"  ......XXXXXXXXXXXXXXXXXXXXXXXX..............................  ",
"  ......XXXXXXXXXXXXXXXXXXXXXXXX..............................  ",
"  XXXX++++++XXXXXXXXXXXXXXXXXXXXXXXXXXXXXXXXXXXXXXXXXXXXXXXXXX  ",
"  XXXX++++++XXXXXXXXXXXXXXXXXXXXXXXXXXXXXXXXXXXXXXXXXXXXXXXXXX  ",
"  ..++oooooo++XXXXXXXXXXXXXXXXXXXXXXXXXXXXXXXXXXXXXXXXXXXXXXXX  ",
"  ..++oooooo++XXXXXXXXXXXXXXXXXXXXXXXXXXXXXXXXXXXXXXXXXXXXXXXX  ",
"  ++ooXXXXXXoo++XXXXXXXXXXXXXXXXXXXX..........................  ",
"  ++ooXXXXXXoo++XXXXXXXXXXXXXXXXXXXX..........................  ",
"  ++oo      ooOO                                                ",
"  ++oo      ooOO                                                ",
"  OOoo......ooOO..XXXXXXXXXXXXXXXXXXXXXXXXXXXXXXXXXXXXXXXXXXXX  ",
"  OOoo......ooOO..XXXXXXXXXXXXXXXXXXXXXXXXXXXXXXXXXXXXXXXXXXXX  ",
"  XXOOooooooOOXXXXXXXXXXXXXXXXXXXXXXXX........................  ",
"  XXOOooooooOOXXXXXXXXXXXXXXXXXXXXXXXX........................  ",
"  XXXXOOOOOOXXXXXXXXXXXXXXXXXXXXXXXXXXXXXXXXXXXXXXXXXXXXXXXXXX  ",
"  XXXXOOOOOOXXXXXXXXXXXXXXXXXXXXXXXXXXXXXXXXXXXXXXXXXXXXXXXXXX  ",
"  XXXXXX........XXXXXXXXXXXXXXXXXXXX..........................  ",
"  XXXXXX........XXXXXXXXXXXXXXXXXXXX..........................  ",
"  XXXXXXXXXXXXXX........................................XXXXXX  ",
"  XXXXXXXXXXXXXX........................................XXXXXX  ",
"  ......XXXXXXXXXXXXXXXXXXXXXXXXXXXXXXXXXXXXXXXXXXXXXXXXXXXXXX  ",
"  ......XXXXXXXXXXXXXXXXXXXXXXXXXXXXXXXXXXXXXXXXXXXXXXXXXXXXXX  ",
"  XXXXXXXXXXXXXXXXXX....XXXXXXXXXXXXXXXXXXXXXXXXXXXXXXXXXXXXXX  ",
"  XXXXXXXXXXXXXXXXXX....XXXXXXXXXXXXXXXXXXXXXXXXXXXXXXXXXXXXXX  ",
"                                                                ",
"                                                                ",
"  ......................XXXXXXXXXXXXXXXXXXXXXXXXXXXXXXXXXXXXXX  ",
"  ......................XXXXXXXXXXXXXXXXXXXXXXXXXXXXXXXXXXXXXX  ",
"  XXXXXXXXXXXXXXXXXXXXXXXXXXXXXXXXXXXXXXXXXXXXXXXXXXXXXXXXXXXX  ",
"  XXXXXXXXXXXXXXXXXXXXXXXXXXXXXXXXXXXXXXXXXXXXXXXXXXXXXXXXXXXX  ",
"  XXXXXXXXXXXXXXXXXXXXXXXXXXXXXXXXXXXXXXXXXXXXXXXXXXXXXXXXXXXX  ",
"  XXXXXXXXXXXXXXXXXXXXXXXXXXXXXXXXXXXXXXXXXXXXXXXXXXXXXXXXXXXX  ",
"  XXXXXXXXXXXXXXXXXXXXXX....................XXXXXXXXXXXXXXXXXX  ",
"  XXXXXXXXXXXXXXXXXXXXXX....................XXXXXXXXXXXXXXXXXX  ",
"  ..............XXXXXXXXXXXXXXXXXXXXXXXXXXXXXXXXXXXXXXXXXXXXXX  ",
"  ..............XXXXXXXXXXXXXXXXXXXXXXXXXXXXXXXXXXXXXXXXXXXXXX  ",
"  ......XXXXXXXXXXXXXXXXXXXXXXXXXXXXXXXXXXXX..........XXXXXXXX  ",
"  ......XXXXXXXXXXXXXXXXXXXXXXXXXXXXXXXXXXXX..........XXXXXXXX  ",
"  XXXXXXXXXXXXXXXX............XXXXXXXXXXXXXXXXXXXXXXXXXXXXXXXX  ",
"  XXXXXXXXXXXXXXXX............XXXXXXXXXXXXXXXXXXXXXXXXXXXXXXXX  ",
"                                                                ",
"                                                                "
};
