/* XPM */
static char *_d580fba18444f6a816090ec79732509mImMxuBdh2oa59kx[] = {
/* columns rows colors chars-per-pixel */
"64 64 13 1 ",
"  c None",
". c black",
"X c #222034",
"o c #3F3F74",
"O c #AC3232",
"+ c #D95763",
"@ c #D9A066",
"# c #306082",
"$ c #5B6EE1",
"% c #639BFF",
"& c #5FCDE4",
"* c #EEC39A",
"= c #CBDBFC",
/* pixels */
"                                                                ",
"                                                                ",
"                                                                ",
"                                                                ",
"                                                                ",
"                                                                ",
"              ..........        ..                              ",
"              ..........        ..                              ",
"            ....OOOOOOOO........==..                            ",
"            ....OOOOOOOO........==..                            ",
"          ..@@..++++++++OOOOOO..==........                      ",
"          ..@@..++++++++OOOOOO..==........                      ",
"        ..@@@@..++++++++++++....&&....OOOO....                  ",
"        ..@@@@..++++++++++++....&&....OOOO....                  ",
"        ..@@**@@..++++++....$$$$&&$$##....OOOO..                ",
"        ..@@**@@..++++++....$$$$&&$$##....OOOO..                ",
"      ..@@****@@..++++++..##%%%%&&&&%%##..++++OO..              ",
"      ..@@****@@..++++++..##%%%%&&&&%%##..++++OO..              ",
"    ..@@******@@..++++..$$$$%%&&&&&&%%$$##..++++OO..            ",
"    ..@@******@@..++++..$$$$%%&&&&&&%%$$##..++++OO..            ",
"    ..@@****@@..++++++..$$%%&&&&==&&&&%%$$..++++++OO..          ",
"    ..@@****@@..++++++..$$%%&&&&==&&&&%%$$..++++++OO..          ",
"    ..@@**@@@@..OO++++..$$%%&&&&==&&&&%%$$..++++++++..          ",
"    ..@@**@@@@..OO++++..$$%%&&&&==&&&&%%$$..++++++++..          ",
"    ..@@**@@@@..OOOOOO..$$$$&&&&&&&&%%$$$$..++++++..@@..        ",
"    ..@@**@@@@..OOOOOO..$$$$&&&&&&&&%%$$$$..++++++..@@..        ",
"    ..@@**@@@@..OOOOOO..##$$%%%%&&&&%%$$##..++++++..**@@..      ",
"    ..@@**@@@@..OOOOOO..##$$%%%%&&&&%%$$##..++++++..**@@..      ",
"      ..**@@@@..OOOOOO..oo##$$%%%%%%$$##oo..OO++..****@@..      ",
"      ..**@@@@..OOOOOO..oo##$$%%%%%%$$##oo..OO++..****@@..      ",
"      ..@@**@@@@..OOOO..XX##$$$$$$$$$$ooXX..OO..********@@..    ",
"      ..@@**@@@@..OOOO..XX##$$$$$$$$$$ooXX..OO..********@@..    ",
"      ..@@****@@@@......XXoo##########ooXX....@@********@@..    ",
"      ..@@****@@@@......XXoo##########ooXX....@@********@@..    ",
"        ..@@******@@@@....oo##%%&&%%##oo......@@@@******@@..    ",
"        ..@@******@@@@....oo##%%&&%%##oo......@@@@******@@..    ",
"        ..@@****@@....@@..##$$%%&&&&####..    ..@@@@****@@..    ",
"        ..@@****@@....@@..##$$%%&&&&####..    ..@@@@****@@..    ",
"          ..@@******@@@@..##$$%%==&&$$##..    ..@@@@@@**@@@@..  ",
"          ..@@******@@@@..##$$%%==&&$$##..    ..@@@@@@**@@@@..  ",
"          ..@@******@@@@....$$%%==&&$$..        ..@@@@@@**@@..  ",
"          ..@@******@@@@....$$%%==&&$$..        ..@@@@@@**@@..  ",
"            ..@@****@@..  ..##$$&&%%$$..          ..@@@@**@@..  ",
"            ..@@****@@..  ..##$$&&%%$$..          ..@@@@**@@..  ",
"            ....@@@@....  ....$$%%$$oo..          ..@@****@@..  ",
"            ....@@@@....  ....$$%%$$oo..          ..@@****@@..  ",
"                ....        ..$$%%$$..            ..@@****..    ",
"                ....        ..$$%%$$..            ..@@****..    ",
"                            ..$$%%$$..          ..@@@@**@@..    ",
"                            ..$$%%$$..          ..@@@@**@@..    ",
"                            ..$$$$##..        ..@@******@@..    ",
"                            ..$$$$##..        ..@@******@@..    ",
"                              ..##oo..      ..@@..@@****@@..    ",
"                              ..##oo..      ..@@..@@****@@..    ",
"                                ....      ......@@****@@..      ",
"                                ....      ......@@****@@..      ",
"                                          ..@@********@@..      ",
"                                          ..@@********@@..      ",
"                                          ..@@@@******..        ",
"                                          ..@@@@******..        ",
"                                            ..@@@@@@@@..        ",
"                                            ..@@@@@@@@..        ",
"                                              ........          ",
"                                              ........          "
};
