/* XPM */
static char *_66f2c9ea7fe40d6cafff127f3b9d793XmbKxmjluKw2rb2g[] = {
/* columns rows colors chars-per-pixel */
"64 64 13 1 ",
"  c None",
". c black",
"X c #222034",
"o c #3F3F74",
"O c #AC3232",
"+ c #D95763",
"@ c #D9A066",
"# c #306082",
"$ c #5B6EE1",
"% c #639BFF",
"& c #5FCDE4",
"* c #EEC39A",
"= c #CBDBFC",
/* pixels */
"                                                                ",
"                                                                ",
"                                                                ",
"                                                                ",
"                                                                ",
"                                                                ",
"              ..........        ..                              ",
"              ..........        ..                              ",
"            ....OOOOOOOO........==..                            ",
"            ....OOOOOOOO........==..                            ",
"          ..@@..++++++++OOOOOO..==........                      ",
"          ..@@..++++++++OOOOOO..==........                      ",
"        ..@@@@..++++++++++++....&&....OOOO....                  ",
"        ..@@@@..++++++++++++....&&....OOOO....                  ",
"        ..@@**@@..++++++....$$$$&&$$##....OOOO..                ",
"        ..@@**@@..++++++....$$$$&&$$##....OOOO..                ",
"      ..@@****@@..++++++..##%%%%&&&&%%##..++++OO..              ",
"      ..@@****@@..++++++..##%%%%&&&&%%##..++++OO..              ",
"    ..@@******@@..++++..$$$$%%&&&&&&%%$$##..++++OO..            ",
"    ..@@******@@..++++..$$$$%%&&&&&&%%$$##..++++OO..            ",
"    ..@@******..++++++..$$%%&&&&==&&&&%%$$..++++++OO..          ",
"    ..@@******..++++++..$$%%&&&&==&&&&%%$$..++++++OO..          ",
"    ..@@**@@@@..OO++++..$$%%&&&&==&&&&%%$$..++++++++..          ",
"    ..@@**@@@@..OO++++..$$%%&&&&==&&&&%%$$..++++++++..          ",
"    ..@@**@@@@..OOOOOO..$$$$&&&&&&&&%%$$$$..++++++..@@..        ",
"    ..@@**@@@@..OOOOOO..$$$$&&&&&&&&%%$$$$..++++++..@@..        ",
"    ..@@@@@@@@..OOOOOO..##$$%%%%&&&&%%$$##..OO++++..**@@..      ",
"    ..@@@@@@@@..OOOOOO..##$$%%%%&&&&%%$$##..OO++++..**@@..      ",
"      ..@@**@@..OOOOOO..oo##$$%%%%%%$$##oo..OOOO..****@@..      ",
"      ..@@**@@..OOOOOO..oo##$$%%%%%%$$##oo..OOOO..****@@..      ",
"      ..@@****@@..OOOO..XX##$$$$$$$$$$ooXX..OO..********@@..    ",
"      ..@@****@@..OOOO..XX##$$$$$$$$$$ooXX..OO..********@@..    ",
"      ..@@****@@..OOOO..XXoo##########ooXX....@@@@******@@..    ",
"      ..@@****@@..OOOO..XXoo##########ooXX....@@@@******@@..    ",
"        ..@@****@@....OO..oo##%%&&%%##oo....@@@@@@@@****@@..    ",
"        ..@@****@@....OO..oo##%%&&%%##oo....@@@@@@@@****@@..    ",
"        ..@@********@@....##$$%%&&&&####..  ..@@@@@@****@@@@..  ",
"        ..@@********@@....##$$%%&&&&####..  ..@@@@@@****@@@@..  ",
"        ....****@@....@@..##$$%%==&&$$##..    ....@@@@**@@@@..  ",
"        ....****@@....@@..##$$%%==&&$$##..    ....@@@@**@@@@..  ",
"          ..@@********@@....$$%%==&&$$..        ..@@@@**@@..    ",
"          ..@@********@@....$$%%==&&$$..        ..@@@@**@@..    ",
"          ..@@********@@....##$$&&%%$$..        ..@@@@**@@..    ",
"          ..@@********@@....##$$&&%%$$..        ..@@@@**@@..    ",
"            ..@@******..  ....$$%%$$oo..        ..@@****@@..    ",
"            ..@@******..  ....$$%%$$oo..        ..@@****@@..    ",
"            ....@@@@@@..    ..$$%%$$..        ..@@@@****..      ",
"            ....@@@@@@..    ..$$%%$$..        ..@@@@****..      ",
"                ......      ..$$%%$$..      ..@@**@@**@@..      ",
"                ......      ..$$%%$$..      ..@@**@@**@@..      ",
"                            ..$$$$##..    ..@@..******@@..      ",
"                            ..$$$$##..    ..@@..******@@..      ",
"                              ..##oo..  ......@@******..        ",
"                              ..##oo..  ......@@******..        ",
"                                ....    ..@@********@@..        ",
"                                ....    ..@@********@@..        ",
"                                        ..@@@@****@@..          ",
"                                        ..@@@@****@@..          ",
"                                          ..@@@@@@@@..          ",
"                                          ..@@@@@@@@..          ",
"                                            ........            ",
"                                            ........            ",
"                                                                ",
"                                                                "
};
