/* XPM */
static char *c95f69efd00047b5c2af29ba53f0b8a3NWEDQKgvpmU3BX6n[] = {
/* columns rows colors chars-per-pixel */
"64 64 13 1 ",
"  c None",
". c black",
"X c #222034",
"o c #3F3F74",
"O c #AC3232",
"+ c #D95763",
"@ c #D9A066",
"# c #306082",
"$ c #5B6EE1",
"% c #639BFF",
"& c #5FCDE4",
"* c #EEC39A",
"= c #CBDBFC",
/* pixels */
"                                                                ",
"                                                                ",
"                          ........                              ",
"                          ........                              ",
"                          ..######..  ..........                ",
"                          ..######..  ..........                ",
"              ................oo####..########..                ",
"              ................oo####..########..                ",
"            ..OOOOOOOOOOOOOO....oooo##oo######..                ",
"            ..OOOOOOOOOOOOOO....oooo##oo######..                ",
"          ....OO++++++++++++++OO......oooooo..                  ",
"          ....OO++++++++++++++OO......oooooo..                  ",
"        ..@@**..++++++++++++++..==..OO......                    ",
"        ..@@**..++++++++++++++..==..OO......                    ",
"      ..@@****@@..++++++++++++..==..++++++OO..                  ",
"      ..@@****@@..++++++++++++..==..++++++OO..                  ",
"      ..********..++++++++++....&&....++++++++....              ",
"      ..********..++++++++++....&&....++++++++....              ",
"    ..@@******..++++++++....$$$$&&$$##....++++++OO..            ",
"    ..@@******..++++++++....$$$$&&$$##....++++++OO..            ",
"    ..@@**@@@@..OO++++++..##%%%%&&&&%%##..++++++++OO..          ",
"    ..@@**@@@@..OO++++++..##%%%%&&&&%%##..++++++++OO..          ",
"    ..@@@@@@@@..OOOOOO..$$$$%%&&&&&&%%$$##..++++++++..          ",
"    ..@@@@@@@@..OOOOOO..$$$$%%&&&&&&%%$$##..++++++++..          ",
"    ..@@@@@@@@..OOOOOO..$$%%&&&&==&&&&%%$$..++++++..@@..        ",
"    ..@@@@@@@@..OOOOOO..$$%%&&&&==&&&&%%$$..++++++..@@..        ",
"      ..@@**@@..OOOOOO..$$%%&&&&==&&&&%%$$..OO++++..**@@..      ",
"      ..@@**@@..OOOOOO..$$%%&&&&==&&&&%%$$..OO++++..**@@..      ",
"      ..@@**@@@@....OO..$$$$&&&&&&&&%%$$$$..OOOO..****@@..      ",
"      ..@@**@@@@....OO..$$$$&&&&&&&&%%$$$$..OOOO..****@@..      ",
"      ..@@@@******@@....##$$%%%%&&&&%%$$##..OO..********@@..    ",
"      ..@@@@******@@....##$$%%%%&&&&%%$$##..OO..********@@..    ",
"        ..@@****@@......oo##$$%%%%%%$$##oo....@@@@******@@..    ",
"        ..@@****@@......oo##$$%%%%%%$$##oo....@@@@******@@..    ",
"        ..@@@@******@@..XX##$$$$$$$$$$ooXX..@@@@@@@@****@@..    ",
"        ..@@@@******@@..XX##$$$$$$$$$$ooXX..@@@@@@@@****@@..    ",
"          ..@@********..XXoo##########ooXX........@@@@**@@..    ",
"          ..@@********..XXoo##########ooXX........@@@@**@@..    ",
"            ..@@******@@..oo##%%&&%%##oo..      ..@@@@@@....    ",
"            ..@@******@@..oo##%%&&%%##oo..      ..@@@@@@....    ",
"            ..@@@@@@@@@@..##$$%%&&&&####........@@@@@@**....    ",
"            ..@@@@@@@@@@..##$$%%&&&&####........@@@@@@**....    ",
"              ....@@@@....##$$%%==&&$$##....@@********@@..      ",
"              ....@@@@....##$$%%==&&$$##....@@********@@..      ",
"                  ....  ....$$%%==&&$$....@@..@@******....      ",
"                  ....  ....$$%%==&&$$....@@..@@******....      ",
"                        ....##$$&&%%$$....@@@@******@@..        ",
"                        ....##$$&&%%$$....@@@@******@@..        ",
"                          ....$$%%$$oo....@@******@@....        ",
"                          ....$$%%$$oo....@@******@@....        ",
"                            ..$$%%$$..  ..@@******@@..          ",
"                            ..$$%%$$..  ..@@******@@..          ",
"                            ..$$%%$$..    ..@@@@@@..            ",
"                            ..$$%%$$..    ..@@@@@@..            ",
"                            ..$$$$##..      ......              ",
"                            ..$$$$##..      ......              ",
"                              ..##oo..                          ",
"                              ..##oo..                          ",
"                                ....                            ",
"                                ....                            ",
"                                                                ",
"                                                                ",
"                                                                ",
"                                                                "
};
