/* XPM */
static char *_ec4a599ee744f22cc8bacdaea9475eaDu4Kw2RRyuSvXa4p[] = {
/* columns rows colors chars-per-pixel */
"64 64 13 1 ",
"  c None",
". c black",
"X c #222034",
"o c #3F3F74",
"O c #AC3232",
"+ c #D95763",
"@ c #D9A066",
"# c #306082",
"$ c #5B6EE1",
"% c #639BFF",
"& c #5FCDE4",
"* c #EEC39A",
"= c #CBDBFC",
/* pixels */
"                                                                ",
"                                                                ",
"                                                                ",
"                                                                ",
"                                                                ",
"                                                                ",
"              ..........  ........                              ",
"              ..........  ........                              ",
"            ....OOOOOOOO......##....  ..........                ",
"            ....OOOOOOOO......##....  ..........                ",
"          ..@@..++++++++++++OO..==....########..                ",
"          ..@@..++++++++++++OO..==....########..                ",
"        ..@@**..++++++++++++++..==..++..........                ",
"        ..@@**..++++++++++++++..==..++..........                ",
"      ..@@****@@..++++++++++....&&....++OO....                  ",
"      ..@@****@@..++++++++++....&&....++OO....                  ",
"      ..********..++++++....$$$$&&$$##....++OO....              ",
"      ..********..++++++....$$$$&&$$##....++OO....              ",
"    ..@@******..++++++++..##%%%%&&&&%%##..++++OOOO..            ",
"    ..@@******..++++++++..##%%%%&&&&%%##..++++OOOO..            ",
"    ..@@**@@@@..OO++++..$$$$%%&&&&&&%%$$##..++++++OO..          ",
"    ..@@**@@@@..OO++++..$$$$%%&&&&&&%%$$##..++++++OO..          ",
"    ..@@@@@@@@..OOOOOO..$$%%&&&&==&&&&%%$$..++++++++..          ",
"    ..@@@@@@@@..OOOOOO..$$%%&&&&==&&&&%%$$..++++++++..          ",
"    ..@@@@@@@@..OOOOOO..$$%%&&&&==&&&&%%$$..++++++..@@..        ",
"    ..@@@@@@@@..OOOOOO..$$%%&&&&==&&&&%%$$..++++++..@@..        ",
"      ..@@**@@..OOOOOO..$$$$&&&&&&&&%%$$$$..OO++++..**@@..      ",
"      ..@@**@@..OOOOOO..$$$$&&&&&&&&%%$$$$..OO++++..**@@..      ",
"      ..@@****@@..OOOO..##$$%%%%&&&&%%$$##..OOOO..****@@..      ",
"      ..@@****@@..OOOO..##$$%%%%&&&&%%$$##..OOOO..****@@..      ",
"      ..@@****@@....OO..oo##$$%%%%%%$$##oo..OO..********@@..    ",
"      ..@@****@@....OO..oo##$$%%%%%%$$##oo..OO..********@@..    ",
"        ..@@********....XX##$$$$$$$$$$ooXX....@@@@******@@@@..  ",
"        ..@@********....XX##$$$$$$$$$$ooXX....@@@@******@@@@..  ",
"        ..@@****@@......XXoo##########ooXX..@@@@@@@@****@@@@..  ",
"        ..@@****@@......XXoo##########ooXX..@@@@@@@@****@@@@..  ",
"          ..@@********....oo##%%&&%%##oo..  ....@@@@@@**@@@@..  ",
"          ..@@********....oo##%%&&%%##oo..  ....@@@@@@**@@@@..  ",
"          ..@@********@@..##$$%%&&&&####..      ..@@@@@@@@..    ",
"          ..@@********@@..##$$%%&&&&####..      ..@@@@@@@@..    ",
"            ..@@******@@..##$$%%==&&$$##..      ..@@@@**@@..    ",
"            ..@@******@@..##$$%%==&&$$##..      ..@@@@**@@..    ",
"              ..@@@@@@@@....$$%%==&&$$..        ..@@**@@..      ",
"              ..@@@@@@@@....$$%%==&&$$..        ..@@**@@..      ",
"                ........  ..##$$&&%%$$..    ....@@@@**@@..      ",
"                ........  ..##$$&&%%$$..    ....@@@@**@@..      ",
"                          ....$$%%$$oo..  ..@@********@@..      ",
"                          ....$$%%$$oo..  ..@@********@@..      ",
"                            ..$$%%$$..  ..@@..@@******..        ",
"                            ..$$%%$$..  ..@@..@@******..        ",
"                            ..$$%%$$..    ..@@******@@..        ",
"                            ..$$%%$$..    ..@@******@@..        ",
"                            ..$$$$##..  ..@@******@@..          ",
"                            ..$$$$##..  ..@@******@@..          ",
"                              ..##oo..  ..@@******@@..          ",
"                              ..##oo..  ..@@******@@..          ",
"                                ....      ..@@@@@@..            ",
"                                ....      ..@@@@@@..            ",
"                                            ......              ",
"                                            ......              ",
"                                                                ",
"                                                                ",
"                                                                ",
"                                                                "
};
