/* XPM */
static char *result[] = {
/* columns rows colors chars-per-pixel */
"64 64 13 1 ",
"  c black",
". c #222034",
"X c #3F3F74",
"o c #AC3232",
"O c #D95763",
"+ c #D9A066",
"@ c #306082",
"# c #5B6EE1",
"$ c #639BFF",
"% c #5FCDE4",
"& c #EEC39A",
"* c #CBDBFC",
"= c None",
/* pixels */
"================================================================",
"================================================================",
"================================================================",
"================================================================",
"====================================          ==================",
"====================================          ==================",
"==============================      ++++++++++  ================",
"==============================      ++++++++++  ================",
"==========================    ++++&&&&&&&&&&&&++    ============",
"==========================    ++++&&&&&&&&&&&&++    ============",
"======================    ++++&&&&++++++++&&&&&&++++  ==========",
"======================    ++++&&&&++++++++&&&&&&++++  ==========",
"==================    ++++&&&&&&++++++++++++&&&&&&++++  ========",
"==================    ++++&&&&&&++++++++++++&&&&&&++++  ========",
"==================  ++&&&&&&&&++++          ++++++        ======",
"==================  ++&&&&&&&&++++          ++++++        ======",
"================  ++&&&&&&++&&++  ooooooooOO      OOOOoo  ======",
"================  ++&&&&&&++&&++  ooooooooOO      OOOOoo  ======",
"================  ++&&&&&&  ++  ooooooooOOOOOOOOOOOOOOoo  ======",
"================  ++&&&&&&  ++  ooooooooOOOOOOOOOOOOOOoo  ======",
"==================  ++++++  ++  ooooooooOOOOOOOOOOOOOOoo  ======",
"==================  ++++++  ++  ooooooooOOOOOOOOOOOOOOoo  ======",
"==================    ++++++                  OOOOOOOOoo  ======",
"==================    ++++++                  OOOOOOOOoo  ======",
"======================        ....XX@@########    OOoo  ========",
"======================        ....XX@@########    OOoo  ========",
"==================      @@@@XXXX@@@@####$$$$##@@  OOoo  ========",
"==================      @@@@XXXX@@@@####$$$$##@@  OOoo  ========",
"============        @@######@@@@####$$%%%%%%$$$$##  oo  ========",
"============        @@######@@@@####$$%%%%%%$$$$##  oo  ========",
"==========  ##########$$$$$$$$@@##$$$$%%%%%%%%$$##      ========",
"==========  ##########$$$$$$$$@@##$$$$%%%%%%%%$$##      ========",
"========  @@##$$$$$$%%****%%%%@@##$$%%%%****%%%%%%%%****  ======",
"========  @@##$$$$$$%%****%%%%@@##$$%%%%****%%%%%%%%****  ======",
"========  XX@@######$$%%%%%%$$@@##$$%%%%%%%%%%%%##      ========",
"========  XX@@######$$%%%%%%$$@@##$$%%%%%%%%%%%%##      ========",
"==========        XX######@@@@@@####$$$$%%%%$$$$@@    ==========",
"==========        XX######@@@@@@####$$$$%%%%$$$$@@    ==========",
"==================      @@@@XXXXXX@@####$$$$##@@  oo  ==========",
"==================      @@@@XXXXXX@@####$$$$##@@  oo  ==========",
"========================      ....XX@@######@@    oo  ==========",
"========================      ....XX@@######@@    oo  ==========",
"====      ==================                  OOoo  ============",
"====      ==================                  OOoo  ============",
"==  ++++    ================    ooooOOOOOOOOOOOOoo  ============",
"==  ++++    ================    ooooOOOOOOOOOOOOoo  ============",
"  ++++&&  ++  ==========    ++++  OOOOOOOOOOOOoo  ==============",
"  ++++&&  ++  ==========    ++++  OOOOOOOOOOOOoo  ==============",
"  ++&&&&++  ++  ======  ++++++&&&&  OOOOOOOOoo  ================",
"  ++&&&&++  ++  ======  ++++++&&&&  OOOOOOOOoo  ================",
"  ++&&&&&&++&&++      ++++++&&&&&&&&    OOoo  ==================",
"  ++&&&&&&++&&++      ++++++&&&&&&&&    OOoo  ==================",
"  ++&&&&&&&&&&++++++++++++&&&&&&&&&&&&++    ====================",
"  ++&&&&&&&&&&++++++++++++&&&&&&&&&&&&++    ====================",
"==    ++++&&&&&&&&&&++++&&&&&&&&&&++++  ========================",
"==    ++++&&&&&&&&&&++++&&&&&&&&&&++++  ========================",
"======    ++++++&&&&&&&&++++++++++    ==========================",
"======    ++++++&&&&&&&&++++++++++    ==========================",
"==========        ++++++++        ==============================",
"==========        ++++++++        ==============================",
"==================        ======================================",
"==================        ======================================",
"================================================================",
"================================================================"
};
