/* XPM */
static char *result[] = {
/* columns rows colors chars-per-pixel */
"64 64 13 1 ",
"  c black",
". c #222034",
"X c #3F3F74",
"o c #AC3232",
"O c #D95763",
"+ c #D9A066",
"@ c #306082",
"# c #5B6EE1",
"$ c #639BFF",
"% c #5FCDE4",
"& c #EEC39A",
"* c #CBDBFC",
"= c None",
/* pixels */
"================================================================",
"================================================================",
"================================================================",
"================================================================",
"======================================        ==================",
"======================================        ==================",
"================================      ++++++++    ==============",
"================================      ++++++++    ==============",
"============================    ++++++++++&&&&&&++  ============",
"============================    ++++++++++&&&&&&++  ============",
"==========================  ++++++&&&&++++++&&&&&&++  ==========",
"==========================  ++++++&&&&++++++&&&&&&++  ==========",
"======================    ++++&&&&++++++++++&&&&&&&&    ========",
"======================    ++++&&&&++++++++++&&&&&&&&    ========",
"====================  ++++&&&&&&&&++          &&++  oooo  ======",
"====================  ++++&&&&&&&&++          &&++  oooo  ======",
"====================  ++&&&&&&++&&  ooooooooOO    OOOOoo  ======",
"====================  ++&&&&&&++&&  ooooooooOO    OOOOoo  ======",
"==================  ++++&&&&&&  ++  ooooooOOOOOOOOOOOOoo  ======",
"==================  ++++&&&&&&  ++  ooooooOOOOOOOOOOOOoo  ======",
"==================  ++++&&&&++    ooooooooOOOOOOOOOOOOoo  ======",
"==================  ++++&&&&++    ooooooooOOOOOOOOOOOOoo  ======",
"====================  ++++                OOOOOOOOOOOOoo  ======",
"====================  ++++                OOOOOOOOOOOOoo  ======",
"================          ....XX@@########    OOOOOOOOoo  ======",
"================          ....XX@@########    OOOOOOOOoo  ======",
"==============      @@@@XXXX@@@@####$$$$##@@  OOOOOOOOoo      ==",
"==============      @@@@XXXX@@@@####$$$$##@@  OOOOOOOOoo      ==",
"========        @@######@@@@####$$%%%%%%$$$$##  OOOOOO    @@  ==",
"========        @@######@@@@####$$%%%%%%$$$$##  OOOOOO    @@  ==",
"======  ##########$$$$$$$$@@##$$$$%%%%%%%%$$##      oo  XX@@  ==",
"======  ##########$$$$$$$$@@##$$$$%%%%%%%%$$##      oo  XX@@  ==",
"====  @@##$$$$$$%%****%%%%@@##$$%%%%****%%%%%%%%****  XX@@@@  ==",
"====  @@##$$$$$$%%****%%%%@@##$$%%%%****%%%%%%%%****  XX@@@@  ==",
"====  XX@@######$$%%%%%%$$@@##$$%%%%%%%%%%%%##        XX@@  ====",
"====  XX@@######$$%%%%%%$$@@##$$%%%%%%%%%%%%##        XX@@  ====",
"======        XX######@@@@@@####$$$$%%%%$$$$@@  OOoo  @@  ======",
"======        XX######@@@@@@####$$$$%%%%$$$$@@  OOoo  @@  ======",
"==============      @@@@XXXXXX@@####$$$$##@@  OOOO  XXXX@@  ====",
"==============      @@@@XXXXXX@@####$$$$##@@  OOOO  XXXX@@  ====",
"============              ....XX@@######@@    OOOO  XX@@@@  ====",
"============              ....XX@@######@@    OOOO  XX@@@@  ====",
"==========  ++++++++    ==                OOOOOOoo  XX@@@@  ====",
"==========  ++++++++    ==                OOOOOOoo  XX@@@@  ====",
"========  ++&&&&++  ++  ==  ++  ooooooOOOOOOOOOO  ==  @@@@  ====",
"========  ++&&&&++  ++  ==  ++  ooooooOOOOOOOOOO  ==  @@@@  ====",
"========  ++&&&&&&++&&  ==  ++++  ooOOOOOOOOOO  ======      ====",
"========  ++&&&&&&++&&  ==  ++++  ooOOOOOOOOOO  ======      ====",
"========  ++&&&&&&&&&&++    ++++&&  OOOOOOOOoo  ================",
"========  ++&&&&&&&&&&++    ++++&&  OOOOOOOOoo  ================",
"==========  ++++&&&&&&++++++++&&&&&&    OOoo  ==================",
"==========  ++++&&&&&&++++++++&&&&&&    OOoo  ==================",
"============    ++&&&&++++++&&&&&&&&&&++    ====================",
"============    ++&&&&++++++&&&&&&&&&&++    ====================",
"==============      ++&&++&&&&&&&&++++  ========================",
"==============      ++&&++&&&&&&&&++++  ========================",
"==================        ++++++++    ==========================",
"==================        ++++++++    ==========================",
"======================            ==============================",
"======================            ==============================",
"================================================================",
"================================================================",
"================================================================",
"================================================================"
};
