/* XPM */
static char *result[] = {
/* columns rows colors chars-per-pixel */
"64 64 13 1 ",
"  c black",
". c #222034",
"X c #3F3F74",
"o c #AC3232",
"O c #D95763",
"+ c #D9A066",
"@ c #306082",
"# c #5B6EE1",
"$ c #639BFF",
"% c #5FCDE4",
"& c #EEC39A",
"* c #CBDBFC",
"= c None",
/* pixels */
"================================================================",
"================================================================",
"================================================================",
"================================================================",
"==============================            ======================",
"==============================            ======================",
"==========================    ++++++++        ==================",
"==========================    ++++++++        ==================",
"========================  ++++&&&&&&&&++&&++      ==============",
"========================  ++++&&&&&&&&++&&++      ==============",
"====================    ++&&&&&&&&&&++++++&&&&++    ============",
"====================    ++&&&&&&&&&&++++++&&&&++    ============",
"==================  ooOO    &&&&&&++++++++&&&&&&++++  ==========",
"==================  ooOO    &&&&&&++++++++&&&&&&++++  ==========",
"================  ooOOOOOOOO  &&++++    ++&&&&&&&&&&++  ========",
"================  ooOOOOOOOO  &&++++    ++&&&&&&&&&&++  ========",
"====      ======  OOOOOOOOOOoo  ++++  ==  &&++&&&&&&++  ========",
"====      ======  OOOOOOOOOOoo  ++++  ==  &&++&&&&&&++  ========",
"====  @@@@  ==  OOOOOOOOOOoooooo  ++  ==  ++  ++&&&&++  ========",
"====  @@@@  ==  OOOOOOOOOOoooooo  ++  ==  ++  ++&&&&++  ========",
"====  @@@@XX  ooOOOOOO                ==    ++++++++  ==========",
"====  @@@@XX  ooOOOOOO                ==    ++++++++  ==========",
"====  @@@@XX  OOOO    @@######@@XX....              ============",
"====  @@@@XX  OOOO    @@######@@XX....              ============",
"====  @@XXXX  OOOO  @@##$$$$####@@XXXXXX@@@@      ==============",
"====  @@XXXX  OOOO  @@##$$$$####@@XXXXXX@@@@      ==============",
"======  @@  ooOO  @@$$$$%%%%$$$$####@@@@@@######XX        ======",
"======  @@  ooOO  @@$$$$%%%%$$$$####@@@@@@######XX        ======",
"====  @@XX        ##%%%%%%%%%%%%$$##@@$$%%%%%%$$######@@XX  ====",
"====  @@XX        ##%%%%%%%%%%%%$$##@@$$%%%%%%$$######@@XX  ====",
"==  @@@@XX  ****%%%%%%%%****%%%%$$##@@%%%%****%%$$$$$$##@@  ====",
"==  @@@@XX  ****%%%%%%%%****%%%%$$##@@%%%%****%%$$$$$$##@@  ====",
"==  @@XX  oo      ##$$%%%%%%%%$$$$##@@$$$$$$$$##########  ======",
"==  @@XX  oo      ##$$%%%%%%%%$$$$##@@$$$$$$$$##########  ======",
"==  @@    OOOOOO  ##$$$$%%%%%%$$####@@@@######@@        ========",
"==  @@    OOOOOO  ##$$$$%%%%%%$$####@@@@######@@        ========",
"==      ooOOOOOOOO  @@##$$$$####@@@@XXXX@@@@      ==============",
"==      ooOOOOOOOO  @@##$$$$####@@@@XXXX@@@@      ==============",
"======  ooOOOOOOOO    ########@@XX....          ================",
"======  ooOOOOOOOO    ########@@XX....          ================",
"======  ooOOOOOOOOOOOO                ++++  ====================",
"======  ooOOOOOOOOOOOO                ++++  ====================",
"======  ooOOOOOOOOOOOOoooooooo    ++&&&&++++  ==================",
"======  ooOOOOOOOOOOOOoooooooo    ++&&&&++++  ==================",
"======  ooOOOOOOOOOOOOoooooo  ++  &&&&&&++++  ==================",
"======  ooOOOOOOOOOOOOoooooo  ++  &&&&&&++++  ==================",
"======  ooOOOO    OOoooooooo  &&++&&&&&&++  ====================",
"======  ooOOOO    OOoooooooo  &&++&&&&&&++  ====================",
"======  oooo  ++&&          ++&&&&&&&&++++  ====================",
"======  oooo  ++&&          ++&&&&&&&&++++  ====================",
"========    &&&&&&&&++++++++++&&&&++++    ======================",
"========    &&&&&&&&++++++++++&&&&++++    ======================",
"==========  ++&&&&&&++++++&&&&++++++  ==========================",
"==========  ++&&&&&&++++++&&&&++++++  ==========================",
"============  ++&&&&&&++++++++++    ============================",
"============  ++&&&&&&++++++++++    ============================",
"==============    ++++++++      ================================",
"==============    ++++++++      ================================",
"==================        ======================================",
"==================        ======================================",
"================================================================",
"================================================================",
"================================================================",
"================================================================"
};
