/* XPM */
static char *result[] = {
/* columns rows colors chars-per-pixel */
"64 64 13 1 ",
"  c black",
". c #222034",
"X c #3F3F74",
"o c #AC3232",
"O c #D95763",
"+ c #D9A066",
"@ c #306082",
"# c #5B6EE1",
"$ c #639BFF",
"% c #5FCDE4",
"& c #EEC39A",
"* c #CBDBFC",
"= c None",
/* pixels */
"================================================================",
"================================================================",
"================================      ==========================",
"================================      ==========================",
"==============================  ++++++    ======================",
"==============================  ++++++    ======================",
"==========================    ++++++++++++      ================",
"==========================    ++++++++++++      ================",
"========================  ++++&&&&&&&&++&&++++++    ============",
"========================  ++++&&&&&&&&++&&++++++    ============",
"====================    ++&&&&&&&&&&++++++&&&&&&&&++    ========",
"====================    ++&&&&&&&&&&++++++&&&&&&&&++    ========",
"==================  ooOO    &&&&&&++++++++++++&&&&&&++++  ======",
"==================  ooOO    &&&&&&++++++++++++&&&&&&++++  ======",
"================  ooOOOOOOOO  &&++++++      ++&&&&&&&&&&++  ====",
"================  ooOOOOOOOO  &&++++++      ++&&&&&&&&&&++  ====",
"========      ==  ooOOOOOOOOoo  ++++  ======  &&++&&&&&&++  ====",
"========      ==  ooOOOOOOOOoo  ++++  ======  &&++&&&&&&++  ====",
"========  @@    ooOOOOOOOOoooooo  ++  ======  ++  ++&&&&++  ====",
"========  @@    ooOOOOOOOOoooooo  ++  ======  ++  ++&&&&++  ====",
"========  @@    OOOO                ==========  ++  ++++  ======",
"========  @@    OOOO                ==========  ++  ++++  ======",
"========  @@  oo    @@######@@XX....      ======  ==    ========",
"========  @@  oo    @@######@@XX....      ======  ==    ========",
"========  @@  OO  @@##$$$$####@@XXXXXX@@@@      ================",
"========  @@  OO  @@##$$$$####@@XXXXXX@@@@      ================",
"==========  OO  @@$$$$%%%%$$$$####@@@@@@######XX        ========",
"==========  OO  @@$$$$%%%%$$$$####@@@@@@######XX        ========",
"========        ##%%%%%%%%%%%%$$##@@$$%%%%%%$$######@@XX  ======",
"========        ##%%%%%%%%%%%%$$##@@$$%%%%%%$$######@@XX  ======",
"======    ****%%%%%%%%****%%%%$$##@@%%%%****%%$$$$$$##@@  ======",
"======    ****%%%%%%%%****%%%%$$##@@%%%%****%%$$$$$$##@@  ======",
"======  @@      ##$$%%%%%%%%$$$$##@@$$$$$$$$##########  ========",
"======  @@      ##$$%%%%%%%%$$$$##@@$$$$$$$$##########  ========",
"======    ooOO  ##$$$$%%%%%%$$####@@@@######@@        ==========",
"======    ooOO  ##$$$$%%%%%%$$####@@@@######@@        ==========",
"======    OOOOOO  @@##$$$$####@@@@XXXX@@@@      ================",
"======    OOOOOO  @@##$$$$####@@@@XXXX@@@@      ================",
"========  OOOOOO    ########@@XX....        ====================",
"========  OOOOOO    ########@@XX....        ====================",
"======  ooOOOOOOOOOO                  ++++++  ==================",
"======  ooOOOOOOOOOO                  ++++++  ==================",
"======  ooOOOOOOOOOOOOoooooooooo    &&&&&&++  ==================",
"======  ooOOOOOOOOOOOOoooooooooo    &&&&&&++  ==================",
"======  ooOOOOOOOOOOOOoooooooo  &&  &&&&&&++  ==================",
"======  ooOOOOOOOOOOOOoooooooo  &&  &&&&&&++  ==================",
"======  ooOOOO    OOoooooooo    &&++&&&&&&++  ==================",
"======  ooOOOO    OOoooooooo    &&++&&&&&&++  ==================",
"======        ++&&          ++++&&&&&&&&++  ====================",
"======        ++&&          ++++&&&&&&&&++  ====================",
"========  ++&&&&&&&&++++++++&&&&&&&&++++  ======================",
"========  ++&&&&&&&&++++++++&&&&&&&&++++  ======================",
"==========  ++&&&&&&++++++&&&&&&++++    ========================",
"==========  ++&&&&&&++++++&&&&&&++++    ========================",
"============  ++&&&&&&++++++++++    ============================",
"============  ++&&&&&&++++++++++    ============================",
"==============    ++++++++      ================================",
"==============    ++++++++      ================================",
"==================        ======================================",
"==================        ======================================",
"================================================================",
"================================================================",
"================================================================",
"================================================================"
};
