/* XPM */
static char *result[] = {
/* columns rows colors chars-per-pixel */
"64 64 13 1 ",
"  c black",
". c #222034",
"X c #3F3F74",
"o c #AC3232",
"O c #D95763",
"+ c #D9A066",
"@ c #306082",
"# c #5B6EE1",
"$ c #639BFF",
"% c #5FCDE4",
"& c #EEC39A",
"* c #CBDBFC",
"= c None",
/* pixels */
"================================================================",
"================================================================",
"============        ============================================",
"============        ============================================",
"==========  ++++++++  ==========================================",
"==========  ++++++++  ==========================================",
"==========  ++&&&&++++  ========================================",
"==========  ++&&&&++++  ========================================",
"========  ++&&&&&&&&++  ====    ================================",
"========  ++&&&&&&&&++  ====    ================================",
"========  &&&&&&++      ==  XX@@  ==============================",
"========  &&&&&&++      ==  XX@@  ==============================",
"======  ++&&&&&&  ++  ====  @@####  ============================",
"======  ++&&&&&&  ++  ====  @@####  ============================",
"======  ++&&++&&++  ======  ##$$##  ======      ================",
"======  ++&&++&&++  ======  ##$$##  ======      ================",
"======  &&&&++++  ========  ##$$##  ====  ++++++    ============",
"======  &&&&++++  ========  ##$$##  ====  ++++++    ============",
"====  ++&&&&++  ========  XX##$$##    ==  &&&&&&++  ============",
"====  ++&&&&++  ========  XX##$$##    ==  &&&&&&++  ============",
"====  ++&&++++  ========  ##$$%%##@@    ++&&&&&&&&++  ==========",
"====  ++&&++++  ========  ##$$%%##@@    ++&&&&&&&&++  ==========",
"====  ++&&++++  ========  ##%%**$$##    ++&&&&&&&&++  ==========",
"====  ++&&++++  ========  ##%%**$$##    ++&&&&&&&&++  ==========",
"==  ++++&&++++    ====  @@##%%**$$##@@  ++    ++&&&&    ========",
"==  ++++&&++++    ====  @@##%%**$$##@@  ++    ++&&&&    ========",
"==  ++++&&&&++++++  ==  @@@@%%%%$$##@@    ++&&&&&&&&++  ========",
"==  ++++&&&&++++++  ==  @@@@%%%%$$##@@    ++&&&&&&&&++  ========",
"====  ++&&&&++++++++    XX@@$$%%$$@@XX  oo    ++&&&&++  ========",
"====  ++&&&&++++++++    XX@@$$%%$$@@XX  oo    ++&&&&++  ========",
"====  ++&&&&&&++++    ..XX@@@@@@@@@@XX..  oooo  ++&&&&++  ======",
"====  ++&&&&&&++++    ..XX@@@@@@@@@@XX..  oooo  ++&&&&++  ======",
"====  ++&&&&&&&&  oo  ..XX##########@@..  oooo  ++&&&&++  ======",
"====  ++&&&&&&&&  oo  ..XX##########@@..  oooo  ++&&&&++  ======",
"======  ++&&&&  oooo  XX@@##$$$$$$##@@XX  oooooo  ++&&++  ======",
"======  ++&&&&  oooo  XX@@##$$$$$$##@@XX  oooooo  ++&&++  ======",
"======  ++&&  OOOOoo  @@##$$%%%%$$$$##@@  oooooo  ++++++++  ====",
"======  ++&&  OOOOoo  @@##$$%%%%$$$$##@@  oooooo  ++++++++  ====",
"========  ++  OOOOOO  ####$$%%%%%%%%####  oooooo  ++++&&++  ====",
"========  ++  OOOOOO  ####$$%%%%%%%%####  oooooo  ++++&&++  ====",
"==========  OOOOOOOO  ##$$%%%%**%%%%$$##  OOOOoo  ++++&&++  ====",
"==========  OOOOOOOO  ##$$%%%%**%%%%$$##  OOOOoo  ++++&&++  ====",
"==========  ooOOOOOO  ##$$%%%%**%%%%$$##  OOOOOO  &&&&&&++  ====",
"==========  ooOOOOOO  ##$$%%%%**%%%%$$##  OOOOOO  &&&&&&++  ====",
"============  ooOOOO  @@##$$%%%%%%$$####  OOOO  ++&&&&&&++  ====",
"============  ooOOOO  @@##$$%%%%%%$$####  OOOO  ++&&&&&&++  ====",
"==============  ooOOOO  @@$$%%%%$$$$@@  OOOOOO  ++&&&&++  ======",
"==============  ooOOOO  @@$$%%%%$$$$@@  OOOOOO  ++&&&&++  ======",
"================  oooo    @@##%%####    OOOOOO  ++&&++  ========",
"================  oooo    @@##%%####    OOOOOO  ++&&++  ========",
"==================    oooo    %%    OOOOOOOOOOOO  ++++  ========",
"==================    oooo    %%    OOOOOOOOOOOO  ++++  ========",
"======================        **  ooooooOOOOOOOO  ++  ==========",
"======================        **  ooooooOOOOOOOO  ++  ==========",
"============================  **        oooooooo    ============",
"============================  **        oooooooo    ============",
"==============================  ========          ==============",
"==============================  ========          ==============",
"================================================================",
"================================================================",
"================================================================",
"================================================================",
"================================================================",
"================================================================"
};
