/* XPM */
static char *result[] = {
/* columns rows colors chars-per-pixel */
"64 64 13 1 ",
"  c black",
". c #222034",
"X c #3F3F74",
"o c #AC3232",
"O c #D95763",
"+ c #D9A066",
"@ c #306082",
"# c #5B6EE1",
"$ c #639BFF",
"% c #5FCDE4",
"& c #EEC39A",
"* c #CBDBFC",
"= c None",
/* pixels */
"================================================================",
"================================================================",
"================================================================",
"================================================================",
"============================    ================================",
"============================    ================================",
"==========================  XX@@  ==============================",
"==========================  XX@@  ==============================",
"==============      ======  @@####  ============================",
"==============      ======  @@####  ============================",
"============  ++++++  ====  ##$$##  ============================",
"============  ++++++  ====  ##$$##  ============================",
"==========  ++&&&&&&++  ==  ##$$##  ============================",
"==========  ++&&&&&&++  ==  ##$$##  ============================",
"========    ++&&&&&&++    XX##$$##    ==========================",
"========    ++&&&&&&++    XX##$$##    ==========================",
"========  ++&&&&&&++++    ##$$%%##@@    ========================",
"========  ++&&&&&&++++    ##$$%%##@@    ========================",
"======    &&&&&&++  ++    ##%%**$$##    ==    ==================",
"======    &&&&&&++  ++    ##%%**$$##    ==    ==================",
"======  ++&&&&&&&&++    @@##%%**$$##@@    ++++    ==============",
"======  ++&&&&&&&&++    @@##%%**$$##@@    ++++    ==============",
"====    &&++++++        @@@@%%%%$$##@@  ++++++++++  ============",
"====    &&++++++        @@@@%%%%$$##@@  ++++++++++  ============",
"====    ++++++  ======  XX@@$$%%$$@@XX  ++&&&&&&++  ============",
"====    ++++++  ======  XX@@$$%%$$@@XX  ++&&&&&&++  ============",
"====  ++&&++++        ..XX@@@@@@@@@@XX..  &&&&&&&&++  ==========",
"====  ++&&++++        ..XX@@@@@@@@@@XX..  &&&&&&&&++  ==========",
"====  ++&&&&++++++++  ..XX##########@@..  ++&&&&&&++++  ========",
"====  ++&&&&++++++++  ..XX##########@@..  ++&&&&&&++++  ========",
"====  ++&&&&&&++++    XX@@##$$$$$$##@@XX      ++&&&&++  ========",
"====  ++&&&&&&++++    XX@@##$$$$$$##@@XX      ++&&&&++  ========",
"====  ++&&&&&&&&  oo  @@##$$%%%%$$$$##@@    ++&&&&&&++++  ======",
"====  ++&&&&&&&&  oo  @@##$$%%%%$$$$##@@    ++&&&&&&++++  ======",
"======  ++&&&&  oooo  ####$$%%%%%%%%####  oo    ++++&&++  ======",
"======  ++&&&&  oooo  ####$$%%%%%%%%####  oo    ++++&&++  ======",
"======  ++&&  OOOOoo  ##$$%%%%**%%%%$$##  oooooo  ++&&++  ======",
"======  ++&&  OOOOoo  ##$$%%%%**%%%%$$##  oooooo  ++&&++  ======",
"========  ++  OOOOOO  ##$$%%%%**%%%%$$##  oooooo  ++++++++  ====",
"========  ++  OOOOOO  ##$$%%%%**%%%%$$##  oooooo  ++++++++  ====",
"==========  OOOOOOOO  @@##$$%%%%%%$$####  oooooo  ++++++++  ====",
"==========  OOOOOOOO  @@##$$%%%%%%$$####  oooooo  ++++++++  ====",
"==========  ooOOOOOOOO  @@$$%%%%$$$$@@  OOOOOOoo  ++++&&++  ====",
"==========  ooOOOOOOOO  @@$$%%%%$$$$@@  OOOOOOoo  ++++&&++  ====",
"============  ooOOOOOO    @@##%%####    OOOOOOOO  &&&&&&++  ====",
"============  ooOOOOOO    @@##%%####    OOOOOOOO  &&&&&&++  ====",
"==============    OOOOOOOO    %%    OOOOOOOOOO  &&&&&&&&  ======",
"==============    OOOOOOOO    %%    OOOOOOOOOO  &&&&&&&&  ======",
"==================  ooOOOOOO  **  OOOOOOOOOOOO  ++&&&&++  ======",
"==================  ooOOOOOO  **  OOOOOOOOOOOO  ++&&&&++  ======",
"====================      oo  **  OOOOOOOOOOOOOO  &&++  ========",
"====================      oo  **  OOOOOOOOOOOOOO  &&++  ========",
"==================  XXXXXX      ooOOOOOOOOOOOOOOoo    ==========",
"==================  XXXXXX      ooOOOOOOOOOOOOOOoo    ==========",
"================  @@@@@@XX@@XXXX    oooooooooooooo  ============",
"================  @@@@@@XX@@XXXX    oooooooooooooo  ============",
"================  @@@@@@@@  @@@@XX                ==============",
"================  @@@@@@@@  @@@@XX                ==============",
"================          ==  @@@@@@  ==========================",
"================          ==  @@@@@@  ==========================",
"==============================        ==========================",
"==============================        ==========================",
"================================================================",
"================================================================"
};
